<svg width="19" height="19" viewBox="0 0 19 19" fill="none" xmlns="http://www.w3.org/2000/svg">
<g clip-path="url(#clip0_232_12148)">
<path d="M18.8574 9.3215C18.8574 4.29176 14.7799 0.214355 9.75021 0.214355C4.72047 0.214355 0.643066 4.29176 0.643066 9.3215C0.643066 13.8671 3.9734 17.6348 8.32722 18.318V11.954H6.01486V9.3215H8.32722V7.31508C8.32722 5.0326 9.68689 3.77183 11.7671 3.77183C12.7632 3.77183 13.8057 3.94971 13.8057 3.94971V6.19092H12.6574C11.5261 6.19092 11.1732 6.89299 11.1732 7.61391V9.3215H13.699L13.2952 11.954H11.1732V18.318C15.527 17.6348 18.8574 13.8671 18.8574 9.3215Z" fill="white"/>
</g>
<defs>
<clipPath id="clip0_232_12148">
<rect width="18.2143" height="18.2143" fill="white" transform="translate(0.643066 0.214355)"/>
</clipPath>
</defs>
</svg>
