<svg width="19" height="19" viewBox="0 0 19 19" fill="none" xmlns="http://www.w3.org/2000/svg">
<path d="M14.3893 5.54364C13.7862 5.54482 13.2958 5.05647 13.2946 4.45334C13.2935 3.8502 13.7818 3.35979 14.3852 3.35861C14.9886 3.35743 15.479 3.84607 15.4802 4.4492C15.4811 5.05234 14.9928 5.54246 14.3893 5.54364Z" fill="white"/>
<path fill-rule="evenodd" clip-rule="evenodd" d="M9.54456 13.9973C6.96239 14.0023 4.86472 11.9131 4.85972 9.33034C4.85469 6.74814 6.94438 4.65015 9.52657 4.64513C12.1093 4.64012 14.2073 6.73044 14.2123 9.31235C14.2173 11.8951 12.127 13.9922 9.54456 13.9973ZM9.52981 6.28605C7.8538 6.28901 6.49706 7.65078 6.50001 9.3271C6.50325 11.0037 7.86531 12.3602 9.54132 12.3569C11.2179 12.3537 12.5747 10.9922 12.5714 9.31559C12.5682 7.63897 11.2061 6.28281 9.52981 6.28605Z" fill="white"/>
<path fill-rule="evenodd" clip-rule="evenodd" d="M3.55489 0.704987C4.13324 0.478368 4.79508 0.323157 5.7641 0.277421C6.73549 0.230803 7.0456 0.220177 9.5183 0.215458C11.9916 0.210739 12.3017 0.220175 13.2731 0.263256C14.2424 0.305156 14.9046 0.458008 15.4841 0.682268C16.0837 0.913309 16.5924 1.22432 17.0993 1.7292C17.6062 2.23466 17.9184 2.7416 18.1524 3.34031C18.3787 3.91925 18.5339 4.58051 18.58 5.55014C18.626 6.52122 18.6372 6.83105 18.6419 9.30409C18.6467 11.7768 18.6366 12.0872 18.5941 13.0592C18.5519 14.028 18.3994 14.6904 18.1751 15.2696C17.9435 15.8692 17.6331 16.3779 17.1282 16.8849C16.6233 17.3921 16.1158 17.704 15.5171 17.9383C14.9382 18.1643 14.2769 18.3195 13.3079 18.3659C12.3365 18.4119 12.0264 18.4228 9.55283 18.4275C7.08041 18.4323 6.7703 18.4228 5.79893 18.38C4.8296 18.3375 4.16717 18.185 3.58794 17.961C2.98836 17.7291 2.47966 17.419 1.97272 16.9138C1.46549 16.4086 1.15302 15.9014 0.919327 15.3027C0.69271 14.724 0.538078 14.0625 0.491757 13.0937C0.445435 12.1221 0.434521 11.8116 0.429803 9.33891C0.425067 6.86587 0.43481 6.55605 0.477295 5.58465C0.520086 4.61504 0.672051 3.95288 0.896309 3.37306C1.12793 2.77376 1.43835 2.26535 1.94381 1.75811C2.44868 1.25118 2.95619 0.938386 3.55489 0.704987ZM4.17898 16.4311C4.50032 16.5547 4.98245 16.7022 5.87034 16.7409C6.83108 16.7825 7.11877 16.7916 9.54987 16.7869C11.9819 16.7825 12.2696 16.7722 13.23 16.727C14.117 16.6848 14.5991 16.5355 14.9196 16.4104C15.3448 16.2443 15.6475 16.0457 15.9656 15.7273C16.2837 15.4077 16.4805 15.1041 16.6452 14.6789C16.7691 14.3573 16.9163 13.8748 16.955 12.9869C16.9972 12.0267 17.006 11.7388 17.0013 9.30704C16.9969 6.8759 16.9866 6.58791 16.9408 5.62744C16.8989 4.74014 16.7499 4.25799 16.6245 3.93783C16.4584 3.51204 16.2604 3.20989 15.9411 2.8915C15.6219 2.57311 15.3182 2.37688 14.8924 2.21223C14.5717 2.08801 14.089 1.94106 13.2017 1.90241C12.2409 1.86021 11.9529 1.85165 9.52125 1.85637C7.09015 1.86109 6.80246 1.87083 5.842 1.91627C4.95443 1.95846 4.47286 2.10748 4.15182 2.23289C3.72692 2.39901 3.42418 2.59642 3.1058 2.91599C2.788 3.23555 2.59119 3.5386 2.42654 3.96469C2.30321 4.28573 2.15478 4.76847 2.11672 5.65577C2.07481 6.61653 2.06597 6.90453 2.07069 9.33566C2.07512 11.7674 2.08544 12.0554 2.13059 13.0153C2.17219 13.9031 2.32237 14.3847 2.4472 14.706C2.61332 15.1307 2.81132 15.4334 3.13029 15.7518C3.44986 16.069 3.75349 16.2664 4.17898 16.4311Z" fill="white"/>
</svg>
