<svg width="19" height="19" viewBox="0 0 19 19" fill="none" xmlns="http://www.w3.org/2000/svg">
<g clip-path="url(#clip0_232_12130)">
<path fill-rule="evenodd" clip-rule="evenodd" d="M12.0294 8.04835C11.2849 8.79287 10.2509 9.26163 9.10652 9.26163C7.97595 9.26163 6.92813 8.79287 6.18361 8.04835C5.4391 7.30384 4.97033 6.26979 4.97033 5.12545C4.97033 3.9811 5.4391 2.94705 6.18361 2.20254C6.92813 1.45803 7.96217 0.989258 9.10652 0.989258C10.2509 0.989258 11.2849 1.45803 12.0294 2.20254C12.774 2.94705 13.2427 3.9811 13.2427 5.12545C13.2427 6.26979 12.774 7.30384 12.0294 8.04835ZM9.10652 3.23659C8.59638 3.23659 8.12761 3.4434 7.78293 3.78808C7.45203 4.13276 7.23144 4.60153 7.23144 5.11166C7.23144 5.62179 7.43825 6.09056 7.78293 6.43524C8.11383 6.77992 8.5826 6.98673 9.10652 6.98673C9.61665 6.98673 10.0854 6.77992 10.4301 6.43524C10.7748 6.10434 10.9816 5.63558 10.9816 5.11166C10.9816 4.60153 10.7748 4.13276 10.4301 3.78808C10.0992 3.4434 9.63044 3.23659 9.10652 3.23659Z" fill="white"/>
<path d="M13.4634 9.27544L14.6766 10.9299C14.7456 11.0126 14.7318 11.1229 14.6215 11.1919C13.6012 12.0329 12.4155 12.5844 11.1747 12.8739L13.7391 17.3962C13.808 17.534 13.7253 17.6857 13.5737 17.6857H11.0644C10.9816 17.6857 10.9127 17.6305 10.8851 17.5616L9.09277 13.5633L7.30042 17.5616C7.27284 17.6443 7.20391 17.6857 7.12118 17.6857H4.61188C4.47401 17.6857 4.3775 17.5202 4.44644 17.3962L7.01088 12.8739C5.77002 12.5844 4.58431 12.0191 3.56405 11.1919C3.49511 11.1229 3.48132 11.0126 3.53647 10.9299L4.74976 9.27544C4.81869 9.19271 4.95657 9.17893 5.03929 9.24786C6.18364 10.2268 7.58995 10.861 9.10656 10.861C10.6232 10.861 12.0295 10.2268 13.1738 9.24786C13.2565 9.16514 13.3944 9.17893 13.4634 9.27544Z" fill="white"/>
</g>
<defs>
<clipPath id="clip0_232_12130">
<rect width="18.2143" height="18.2143" fill="white" transform="translate(0 0.214355)"/>
</clipPath>
</defs>
</svg>
