<svg width="19" height="19" viewBox="0 0 19 19" fill="none" xmlns="http://www.w3.org/2000/svg">
<g clip-path="url(#clip0_232_12155)">
<path d="M9.12457 14.741C6.11175 14.741 4.73522 13.2062 4.73522 12.0805C4.73482 11.812 4.84503 11.5551 5.03994 11.3704C5.23485 11.1856 5.49724 11.0893 5.76538 11.1041C7.05531 11.1041 6.71789 13.039 9.12457 13.039C10.3548 13.039 11.0774 12.2985 11.0774 11.6028C11.0774 11.1847 10.8385 10.707 10.0263 10.5159L7.33897 9.83808C5.18013 9.28866 4.8039 8.08831 4.8039 6.97456C4.8039 4.66343 6.91795 3.82737 8.93048 3.82737C10.7848 3.82737 12.9884 4.85155 12.9884 6.23703C12.9884 6.83422 12.4897 7.15371 11.9105 7.15371C10.8086 7.15371 10.9938 5.60699 8.7782 5.60699C7.67638 5.60699 7.09711 6.12356 7.09711 6.84616C7.09711 7.56876 7.95408 7.81361 8.70654 7.97783L10.6892 8.42573C12.863 8.91542 13.4422 10.1904 13.4422 11.4117C13.4422 13.2898 11.9881 14.741 9.12158 14.741M17.4434 10.7667C17.5295 10.2737 17.5724 9.77418 17.5718 9.27374C17.5824 6.7599 16.4778 4.37077 14.5559 2.75035C12.634 1.12993 10.0926 0.44502 7.61666 0.880234C6.85566 0.442086 5.99256 0.212405 5.11444 0.214368C3.312 0.225379 1.65058 1.19139 0.749371 2.75239C-0.151843 4.31339 -0.157673 6.23522 0.734054 7.80166C0.236477 10.5357 1.10808 13.3402 3.06773 15.3106C5.02737 17.2809 7.82709 18.1678 10.5638 17.6852C11.3239 18.1229 12.1859 18.3526 13.063 18.351C14.8646 18.3394 16.525 17.3738 17.426 15.8138C18.327 14.2537 18.3336 12.333 17.4434 10.7667Z" fill="white"/>
</g>
<defs>
<clipPath id="clip0_232_12155">
<rect width="18.2143" height="18.2143" fill="white" transform="translate(0.0712891 0.214355)"/>
</clipPath>
</defs>
</svg>
