<svg width="19" height="19" viewBox="0 0 19 19" fill="none" xmlns="http://www.w3.org/2000/svg">
<g clip-path="url(#clip0_232_12128)">
<path d="M18.285 9.20471C14.2522 9.3283 12.4114 9.43244 10.9348 10.8635C9.50372 12.3401 9.40609 14.1809 9.276 18.2137C14.2283 18.1618 18.233 14.157 18.285 9.20471Z" fill="white"/>
<path d="M9.08082 18.2137C8.95723 14.1809 8.85309 12.3401 7.42203 10.8635C5.94544 9.43244 4.10458 9.33481 0.0717774 9.20471C0.123773 14.157 4.12853 18.1618 9.08082 18.2137Z" fill="white"/>
<path d="M18.285 9.00953C18.233 4.05724 14.2283 0.052483 9.276 0.000488281C9.39959 4.0333 9.50372 5.87415 10.9348 7.35074C12.4114 8.7818 14.2522 8.87943 18.285 9.00953Z" fill="white"/>
<path d="M9.08082 0.000488282C4.12852 0.052483 0.123772 4.05724 0.0717773 9.00953C4.10458 8.88594 5.94544 8.7818 7.42203 7.35074C8.85309 5.87415 8.95072 4.0333 9.08082 0.000488282Z" fill="white"/>
</g>
<defs>
<clipPath id="clip0_232_12128">
<rect width="18.2143" height="18.2143" fill="white" transform="translate(0.0712891)"/>
</clipPath>
</defs>
</svg>
