<svg width="19" height="19" viewBox="0 0 19 19" fill="none" xmlns="http://www.w3.org/2000/svg">
<path fill-rule="evenodd" clip-rule="evenodd" d="M2.014 8.12663C6.49591 6.17392 9.48455 4.88657 10.9799 4.26459C15.2495 2.48871 16.1367 2.18022 16.7149 2.17003C16.8421 2.16779 17.1265 2.19931 17.3107 2.34878C17.4662 2.47499 17.509 2.64548 17.5295 2.76513C17.55 2.88479 17.5755 3.15738 17.5552 3.37037C17.3238 5.80142 16.3227 11.7009 15.8134 14.4238C15.5979 15.5759 15.1735 15.9622 14.7627 16C13.8699 16.0821 13.1919 15.41 12.3272 14.8431C10.9741 13.9561 10.2096 13.4039 8.89618 12.5384C7.37826 11.5381 8.36227 10.9883 9.22732 10.0898C9.45371 9.85468 13.3875 6.27661 13.4636 5.95202C13.4731 5.91143 13.482 5.76011 13.3921 5.68021C13.3022 5.60031 13.1695 5.62763 13.0737 5.64936C12.938 5.68016 10.7764 7.10894 6.5888 9.9357C5.97522 10.357 5.41946 10.5623 4.92152 10.5516C4.37258 10.5397 3.31664 10.2412 2.53166 9.98601C1.56885 9.67303 0.803622 9.50756 0.870256 8.97604C0.904963 8.69918 1.28621 8.41605 2.014 8.12663Z" fill="white"/>
</svg>
