<svg width="19" height="19" viewBox="0 0 19 19" fill="none" xmlns="http://www.w3.org/2000/svg">
<g clip-path="url(#clip0_232_12122)">
<path d="M13.3857 0H10.3161V12.4068C10.3161 13.8851 9.13549 15.0994 7.66626 15.0994C6.19703 15.0994 5.01641 13.8851 5.01641 12.4068C5.01641 10.955 6.1708 9.76706 7.58757 9.71429V6.59939C4.46545 6.65216 1.94678 9.21273 1.94678 12.4068C1.94678 15.6274 4.51792 18.2143 7.69251 18.2143C10.8671 18.2143 13.4382 15.6009 13.4382 12.4068V6.04502C14.5926 6.88976 16.0093 7.39131 17.5048 7.41772V4.3028C15.1961 4.2236 13.3857 2.32298 13.3857 0Z" fill="white"/>
</g>
<defs>
<clipPath id="clip0_232_12122">
<rect width="18.2143" height="18.2143" fill="white" transform="translate(0.428711)"/>
</clipPath>
</defs>
</svg>
