<svg width="18" height="19" viewBox="0 0 18 19" fill="none" xmlns="http://www.w3.org/2000/svg">
<path d="M10.9051 7.99076C10.8481 7.99077 10.7932 7.96883 10.7518 7.92949C10.7104 7.89015 10.6858 7.83642 10.6829 7.77941C10.6452 7.02357 10.289 6.65344 9.56226 6.61434C9.50435 6.60974 9.45054 6.58269 9.41229 6.53897C9.37404 6.49525 9.35439 6.43831 9.35753 6.38031C9.36067 6.3223 9.38634 6.26782 9.42908 6.22848C9.47182 6.18913 9.52824 6.16805 9.5863 6.16971C10.5453 6.22255 11.0784 6.77021 11.1276 7.75722C11.129 7.78643 11.1247 7.81565 11.1149 7.84319C11.1051 7.87074 11.0899 7.89608 11.0703 7.91777C11.0506 7.93945 11.0269 7.95706 11.0005 7.96959C10.9741 7.98211 10.9454 7.98931 10.9162 7.99076H10.9051Z" fill="white"/>
<path d="M12.0427 8.37384H12.048C12.1062 8.37371 12.1622 8.35078 12.2037 8.30994C12.2453 8.26911 12.2692 8.21362 12.2704 8.15536C12.29 7.28591 12.0239 6.54566 11.4889 5.96048C10.954 5.3753 10.2016 5.04321 9.25233 4.97373C9.19333 4.96942 9.13504 4.98873 9.09027 5.0274C9.04551 5.06607 9.01794 5.12094 9.01363 5.17993C9.00932 5.23893 9.02862 5.29722 9.0673 5.34198C9.10596 5.38675 9.16083 5.41432 9.21983 5.41863C10.0634 5.48045 10.6961 5.7552 11.1606 6.26192C11.625 6.76863 11.8424 7.38498 11.8253 8.14611C11.8239 8.20514 11.8461 8.26228 11.8868 8.30499C11.9276 8.34769 11.9837 8.37246 12.0427 8.37384Z" fill="white"/>
<path d="M13.2175 8.83088C13.1588 8.83081 13.1024 8.80755 13.0607 8.76614C13.019 8.72473 12.9953 8.66853 12.9948 8.60976C12.9845 7.24839 12.5925 6.20854 11.7962 5.4313C11.0095 4.66515 10.0156 4.27204 8.84178 4.26359C8.81254 4.26348 8.7836 4.25762 8.75662 4.24633C8.72963 4.23504 8.70514 4.21855 8.68453 4.1978C8.64292 4.15588 8.61965 4.09915 8.61986 4.04008C8.62007 3.98102 8.64374 3.92445 8.68565 3.88284C8.72757 3.84122 8.7843 3.81796 8.84337 3.81817H8.84522C10.1376 3.82768 11.2351 4.26306 12.1072 5.11269C12.9792 5.96232 13.4289 7.14007 13.4405 8.60711C13.4409 8.66613 13.4179 8.72291 13.3765 8.76497C13.3351 8.80702 13.2787 8.83092 13.2197 8.83141L13.2175 8.83088Z" fill="white"/>
<path d="M10.0999 10.5698C9.93132 10.7774 9.61826 10.751 9.61826 10.751C7.33012 10.1669 6.71773 7.84916 6.71773 7.84916C6.71773 7.84916 6.69025 7.5361 6.89896 7.36754L7.31242 7.03889C7.51743 6.88091 7.6482 6.49757 7.43949 6.12321C7.27941 5.84221 7.10535 5.56941 6.91798 5.30581C6.73596 5.05721 6.31193 4.54812 6.31035 4.54654C6.10587 4.30533 5.80522 4.24932 5.48819 4.41444C5.48723 4.41444 5.48592 4.41487 5.48465 4.41528C5.48348 4.41566 5.48235 4.41603 5.48159 4.41603C5.16628 4.5977 4.88196 4.82851 4.63936 5.09975C4.63853 5.1014 4.6377 5.10219 4.63687 5.10298C4.63612 5.10371 4.63536 5.10443 4.6346 5.10582C4.43875 5.34218 4.32664 5.57388 4.29829 5.8009C4.2924 5.83438 4.29036 5.86841 4.29221 5.90235C4.29116 6.0026 4.30642 6.10236 4.33739 6.19772L4.34822 6.20511C4.44703 6.55596 4.69431 7.14034 5.23167 8.11467C5.53903 8.67822 5.89351 9.21477 6.29133 9.71856C6.49064 9.9711 6.70428 10.212 6.93119 10.4401C6.93393 10.4428 6.93663 10.4455 6.93932 10.4482C6.9447 10.4537 6.95004 10.4591 6.9555 10.4644L7.02841 10.5373C7.25648 10.7642 7.49737 10.9778 7.74991 11.1771C8.25376 11.575 8.79039 11.9295 9.35407 12.2368C10.3281 12.7742 10.913 13.0214 11.2634 13.1203L11.2708 13.1311C11.3661 13.1621 11.4659 13.1775 11.5661 13.1765C11.6001 13.1782 11.6341 13.176 11.6676 13.1702C11.8949 13.1432 12.1265 13.0313 12.3621 12.8344C12.3635 12.8336 12.3642 12.8329 12.365 12.8321C12.3658 12.8313 12.3665 12.8305 12.3682 12.8296C12.6394 12.587 12.8703 12.3027 13.0522 11.9874C13.0522 11.9866 13.0525 11.9855 13.0528 11.9843C13.0531 11.9831 13.0535 11.9818 13.0535 11.9808C13.2186 11.6638 13.1626 11.3631 12.9201 11.1584C12.9198 11.1584 12.9 11.1421 12.8665 11.1145C12.7291 11.0013 12.3607 10.6978 12.1608 10.5508C11.8975 10.3634 11.6249 10.1893 11.3442 10.0292C10.9696 9.82053 10.587 9.95131 10.4285 10.1563L10.0999 10.5698Z" fill="white"/>
<path fill-rule="evenodd" clip-rule="evenodd" d="M15.4275 2.38466C14.99 1.98098 13.222 0.697554 9.28405 0.680117C9.28405 0.680117 4.64014 0.400077 2.37631 2.4766C1.11613 3.73704 0.672819 5.58135 0.626058 7.8679C0.579297 10.1545 0.518797 14.4396 4.64939 15.6015H4.65335L4.65071 17.3745C4.65071 17.3745 4.62429 18.0923 5.09692 18.2386C5.57405 18.3868 5.88667 18.0313 6.29431 17.5678C6.37512 17.4759 6.45966 17.3798 6.54996 17.2825C6.84955 16.9597 7.26327 16.4855 7.57501 16.123C10.4 16.3608 12.5727 15.8173 12.8194 15.737C12.8704 15.7205 12.9425 15.7022 13.0319 15.6794C13.9446 15.4474 16.6643 14.7558 17.1423 10.8538C17.6842 6.43732 16.8803 3.64379 15.4275 2.38466ZM15.9062 10.537C15.5073 13.7583 13.3452 14.2614 12.5661 14.4427C12.48 14.4627 12.4107 14.4789 12.3626 14.4943C12.1574 14.5603 10.2491 15.0351 7.84951 14.8784C7.84951 14.8784 6.06148 17.0355 5.50298 17.5964C5.4158 17.6841 5.31329 17.7195 5.24487 17.7021C5.1487 17.6785 5.12229 17.5647 5.12334 17.3982C5.12493 17.1605 5.13867 14.452 5.13867 14.452C1.75997 13.514 1.83877 10.0729 1.8835 8.11983C1.88503 8.05308 1.88651 7.98807 1.88782 7.92496C1.92745 6.01514 2.28622 4.45062 3.35196 3.39835C5.2668 1.66396 9.2114 1.92312 9.2114 1.92312C12.5426 1.93766 14.1388 2.94078 14.5089 3.27683C15.7379 4.32909 16.364 6.84707 15.9062 10.5359V10.537Z" fill="white"/>
</svg>
