<svg width="20" height="20" viewBox="0 0 20 20" fill="none" xmlns="http://www.w3.org/2000/svg">
<path d="M0.75 19.1074L2.03031 14.4301C1.24027 13.061 0.825134 11.509 0.825893 9.91749C0.82817 4.94195 4.87705 0.893066 9.85183 0.893066C12.266 0.893825 14.5321 1.83414 16.2367 3.54021C17.9405 5.24628 18.8785 7.51396 18.8778 9.92583C18.8755 14.9021 14.8266 18.951 9.85183 18.951C8.34156 18.9503 6.8533 18.5715 5.53505 17.8521L0.75 19.1074ZM5.75665 16.2181C7.02862 16.9732 8.2429 17.4256 9.8488 17.4263C13.9834 17.4263 17.3516 14.0612 17.3538 9.92432C17.3554 5.77905 14.0032 2.41851 9.85487 2.41699C5.71719 2.41699 2.35134 5.78208 2.34982 9.91824C2.34906 11.6069 2.84388 12.8712 3.67491 14.194L2.91674 16.9626L5.75665 16.2181ZM14.3986 12.0713C14.3424 11.9772 14.1921 11.9211 13.966 11.808C13.7406 11.6949 12.6318 11.1492 12.4246 11.0741C12.2182 10.999 12.0679 10.961 11.9169 11.1872C11.7666 11.4126 11.334 11.9211 11.2027 12.0713C11.0714 12.2216 10.9394 12.2406 10.714 12.1275C10.4886 12.0144 9.76152 11.7769 8.90014 11.0081C8.23 10.41 7.77692 9.67159 7.64563 9.44543C7.51433 9.22003 7.63197 9.09784 7.74429 8.98552C7.84598 8.88458 7.96969 8.72217 8.08277 8.59012C8.19737 8.45958 8.23456 8.36548 8.31045 8.21445C8.38558 8.06418 8.3484 7.93213 8.29148 7.81905C8.23456 7.70673 7.78375 6.59641 7.5963 6.14485C7.41264 5.70543 7.2267 5.76463 7.08857 5.7578L6.65598 5.75021C6.50572 5.75021 6.26134 5.80637 6.05491 6.03253C5.84848 6.25869 5.26563 6.8036 5.26563 7.91391C5.26563 9.02423 6.07388 10.0966 6.18621 10.2469C6.29929 10.3971 7.77616 12.6754 10.0385 13.6522C10.5766 13.8844 10.9971 14.0233 11.3242 14.1273C11.8645 14.2988 12.3563 14.2745 12.7449 14.2168C13.1782 14.1523 14.0791 13.6711 14.2673 13.1444C14.4555 12.617 14.4555 12.1654 14.3986 12.0713Z" fill="white"/>
</svg>
