<svg width="19" height="19" viewBox="0 0 19 19" fill="none" xmlns="http://www.w3.org/2000/svg">
<g clip-path="url(#clip0_232_12118)">
<path fill-rule="evenodd" clip-rule="evenodd" d="M18.2449 3.36765C18.5275 3.65207 18.7305 4.00572 18.8334 4.39322C19.2143 5.82345 19.2143 8.80604 19.2143 8.80604C19.2143 8.80604 19.2143 11.7886 18.8334 13.2189C18.7305 13.6064 18.5275 13.96 18.2449 14.2444C17.9623 14.5289 17.61 14.7341 17.2231 14.8395C15.7991 15.2224 10.1071 15.2224 10.1071 15.2224C10.1071 15.2224 4.41518 15.2224 2.99115 14.8395C2.60432 14.7341 2.25197 14.5289 1.96937 14.2444C1.68677 13.96 1.48382 13.6064 1.38084 13.2189C1 11.7886 1 8.80604 1 8.80604C1 8.80604 1 5.82345 1.38084 4.39322C1.48382 4.00572 1.68677 3.65207 1.96937 3.36765C2.25197 3.08323 2.60432 2.87802 2.99115 2.77256C4.41518 2.38965 10.1071 2.38965 10.1071 2.38965C10.1071 2.38965 15.7991 2.38965 17.2231 2.77256C17.61 2.87802 17.9623 3.08323 18.2449 3.36765ZM13.0049 8.80607L8.24433 6.09773V11.5144L13.0049 8.80607Z" fill="white"/>
</g>
<defs>
<clipPath id="clip0_232_12118">
<rect width="18.2143" height="18.2143" fill="white" transform="translate(0.643066)"/>
</clipPath>
</defs>
</svg>
