<svg width="28" height="10" viewBox="0 0 28 10" fill="none" xmlns="http://www.w3.org/2000/svg">
<path fill-rule="evenodd" clip-rule="evenodd" d="M7.12564 8.95328H4.74574L2.9611 2.00375C2.87639 1.68407 2.69654 1.40146 2.43197 1.26826C1.77173 0.933523 1.04418 0.667125 0.250488 0.532767V0.26521H4.08433C4.61346 0.26521 5.0103 0.667125 5.07644 1.1339L6.00241 6.14683L8.38116 0.26521H10.6949L7.12564 8.95328ZM12.0179 8.95328H9.77025L11.621 0.26521H13.8687L12.0179 8.95328ZM16.7761 2.67217C16.8423 2.20424 17.2391 1.93668 17.7021 1.93668C18.4296 1.8695 19.2222 2.00386 19.8836 2.33744L20.2804 0.466856C19.619 0.199299 18.8915 0.0649414 18.2312 0.0649414C16.0497 0.0649414 14.4624 1.26837 14.4624 2.93857C14.4624 4.20918 15.5868 4.87633 16.3804 5.27825C17.2391 5.679 17.5698 5.94656 17.5037 6.34732C17.5037 6.94845 16.8423 7.21601 16.182 7.21601C15.3883 7.21601 14.5946 7.01563 13.8683 6.68089L13.4714 8.55263C14.2651 8.88621 15.1238 9.02057 15.9175 9.02057C18.3635 9.08659 19.8836 7.88432 19.8836 6.07976C19.8836 3.80726 16.7761 3.67406 16.7761 2.67217ZM27.7504 8.95328L25.9658 0.26521H24.0489C23.652 0.26521 23.2552 0.532767 23.1229 0.933523L19.8182 8.95328H22.1319L22.5938 7.68383H25.4367L25.7012 8.95328H27.7504ZM24.3794 2.60511L25.0396 5.8795H23.1889L24.3794 2.60511Z" fill="white"/>
</svg>
