<svg width="36" height="9" viewBox="0 0 36 9" fill="none" xmlns="http://www.w3.org/2000/svg">
<g clip-path="url(#clip0_230_12026)">
<path d="M18.7797 2.40244H17.6171L16.7944 3.84826H16.3709L16.3574 0.719238H15.2568V6.37036H16.3574L16.3709 4.81934H16.7917L17.8842 6.37036H19.1034L17.6791 4.31492L18.7797 2.40244Z" fill="white"/>
<path d="M27.1087 4.26342C26.8852 4.11873 26.6428 4.00529 26.3885 3.92625L26.1457 3.83453L26.081 3.81025C25.9299 3.75361 25.7708 3.69427 25.7654 3.54051C25.764 3.49497 25.774 3.44981 25.7949 3.40924C25.8156 3.36868 25.8463 3.33402 25.8841 3.30854C25.9638 3.2536 26.0572 3.22185 26.1538 3.21682C26.3645 3.20227 26.5735 3.26455 26.7418 3.39215L26.7715 3.41104L27.3595 2.73399L27.3299 2.70971C27.2567 2.64445 27.1772 2.58662 27.0925 2.53707C26.9408 2.4503 26.7759 2.38924 26.6043 2.35634C26.3571 2.30375 26.1015 2.30375 25.8544 2.35634C25.6154 2.38797 25.3887 2.4809 25.1963 2.62608C25.0731 2.72239 24.9702 2.84199 24.8934 2.97806C24.8166 3.11414 24.7674 3.26401 24.7484 3.41912C24.7147 3.69906 24.7858 3.98156 24.9481 4.21218C25.1635 4.45082 25.4453 4.61985 25.7572 4.69771L25.8058 4.71389L25.9164 4.75166C26.3156 4.88653 26.4289 4.94048 26.4936 5.02141C26.5238 5.06212 26.5407 5.11106 26.5422 5.16167C26.5422 5.35319 26.3075 5.43142 26.1484 5.47996C26.0371 5.50087 25.9228 5.49872 25.8123 5.47367C25.7019 5.44862 25.5978 5.40118 25.5065 5.33431C25.3585 5.23542 25.232 5.10793 25.1341 4.95937C25.0722 5.0241 24.4625 5.62563 24.4733 5.63641L24.4922 5.66339C24.7859 6.03115 25.1975 6.28646 25.6575 6.38631C25.7625 6.40662 25.8689 6.42014 25.9758 6.42676H26.0864C26.4498 6.43438 26.8057 6.32361 27.1006 6.11117C27.3001 5.97009 27.453 5.77293 27.5403 5.54471C27.5934 5.3915 27.6121 5.22853 27.5953 5.06727C27.5785 4.906 27.5267 4.75039 27.4432 4.61139C27.3579 4.47277 27.2438 4.35411 27.1087 4.26342Z" fill="white"/>
<path d="M30.6645 4.26347C30.4419 4.11879 30.2006 4.00534 29.9471 3.92629L29.7016 3.83458L29.6396 3.8103C29.4858 3.75365 29.3294 3.6943 29.3213 3.54056C29.3219 3.4951 29.3333 3.45045 29.3544 3.41016C29.3755 3.36988 29.4057 3.33509 29.4427 3.30858C29.5224 3.25364 29.6158 3.22191 29.7124 3.21687C29.9231 3.20281 30.1318 3.26504 30.3004 3.3922L30.3274 3.41108L30.9154 2.73402L30.8885 2.70974C30.8147 2.64385 30.7343 2.58598 30.6484 2.53712C30.4976 2.45045 30.3336 2.38937 30.1628 2.35639C29.9147 2.30373 29.6584 2.30373 29.4103 2.35639C29.1716 2.38895 28.945 2.48178 28.752 2.62613C28.6282 2.72152 28.5244 2.84045 28.4466 2.97609C28.3689 3.11173 28.3187 3.26138 28.2989 3.41648C28.2636 3.69651 28.3348 3.97958 28.4986 4.20952C28.714 4.44817 28.9958 4.61719 29.3077 4.69506L29.3536 4.71125L29.4642 4.74901C29.8661 4.88387 29.9794 4.93783 30.0441 5.01875C30.0752 5.05877 30.0915 5.10836 30.09 5.15902C30.09 5.35053 29.858 5.42876 29.6989 5.47732C29.5872 5.49827 29.4723 5.49616 29.3615 5.47112C29.2506 5.44607 29.146 5.39861 29.0542 5.33165C28.9075 5.23133 28.7813 5.1041 28.6819 4.95671C28.6227 5.02145 28.013 5.62297 28.0211 5.63377L28.0426 5.66074C28.3364 6.0285 28.748 6.2838 29.208 6.38365C29.313 6.40414 29.4194 6.41766 29.5263 6.42411H29.6369C30.0003 6.43173 30.3562 6.32095 30.6511 6.10851C30.8506 5.96743 31.0035 5.77027 31.0908 5.54205C31.1437 5.38885 31.1625 5.22587 31.1458 5.06462C31.129 4.90336 31.0772 4.74775 30.9936 4.60874C30.9095 4.4718 30.7973 4.35415 30.6645 4.26347Z" fill="white"/>
<path d="M22.3941 2.40162V2.79006H22.3456C22.0444 2.48842 21.6362 2.31782 21.21 2.3153C20.9487 2.31015 20.6891 2.36007 20.4484 2.46186C20.2077 2.56364 19.991 2.71499 19.8126 2.90604C19.4529 3.30888 19.26 3.83354 19.2732 4.37345C19.2592 4.92242 19.4517 5.45664 19.8126 5.87052C19.9868 6.0617 20.2 6.21317 20.4379 6.31463C20.6757 6.4161 20.9326 6.46518 21.191 6.45855C21.6179 6.45054 22.0284 6.29303 22.3509 6.01348H22.3941V6.36145H23.5378V2.40162H22.3941ZM22.4508 4.39502C22.4623 4.71414 22.3556 5.02627 22.1513 5.27169C22.0534 5.38134 21.9326 5.46813 21.7974 5.52594C21.6623 5.58374 21.516 5.61113 21.3692 5.60618C21.2266 5.60857 21.0853 5.57876 20.956 5.51898C20.8266 5.4592 20.7124 5.37097 20.622 5.2609C20.42 5.01039 20.3165 4.69486 20.3306 4.37345C20.3214 4.0617 20.4269 3.75743 20.6272 3.51837C20.7195 3.40995 20.8346 3.32326 20.9642 3.2645C21.0939 3.20575 21.2349 3.17637 21.3771 3.17848C21.5232 3.17394 21.6683 3.20182 21.8021 3.26013C21.936 3.31843 22.0553 3.40571 22.1513 3.51566C22.3556 3.76217 22.4621 4.07511 22.4508 4.39502Z" fill="white"/>
<path d="M34.8345 2.40158V2.79001H34.7859C34.4853 2.48903 34.0784 2.31849 33.653 2.31527C33.3914 2.31039 33.1315 2.36046 32.8904 2.4622C32.6493 2.56395 32.4321 2.71514 32.2531 2.906C31.8933 3.30884 31.7005 3.83349 31.7136 4.37341C31.6997 4.92237 31.8921 5.4566 32.2531 5.87048C32.4272 6.06166 32.6404 6.21313 32.8782 6.3146C33.1161 6.41606 33.373 6.46515 33.6315 6.45851C34.0583 6.4505 34.4687 6.293 34.7913 6.01344H34.8345V6.36141H35.9782V2.40158H34.8345ZM34.8912 4.39498C34.9039 4.71429 34.7971 5.02686 34.5917 5.27165C34.4939 5.3813 34.373 5.46809 34.2378 5.5259C34.1026 5.5837 33.9564 5.61108 33.8094 5.60613C33.6669 5.60852 33.5258 5.57872 33.3964 5.51894C33.267 5.45915 33.1528 5.37094 33.0622 5.26086C32.8605 5.01035 32.7568 4.69483 32.771 4.37341C32.7618 4.06166 32.8674 3.75739 33.0677 3.51832C33.16 3.40991 33.275 3.32321 33.4047 3.26446C33.5343 3.2057 33.6753 3.17633 33.8176 3.17844C33.9636 3.17389 34.1087 3.20179 34.2425 3.26009C34.3764 3.31839 34.4956 3.40567 34.5917 3.51562C34.7971 3.76149 34.9038 4.07488 34.8912 4.39498Z" fill="white"/>
<path d="M7.74411 0.0556641C5.3697 0.0556641 3.48096 1.97139 3.48096 4.31882C3.48096 6.69324 5.39668 8.58198 7.74411 8.58198C10.0916 8.58198 12.0073 6.66625 12.0073 4.31882C12.0073 1.97139 10.0916 0.0556641 7.74411 0.0556641ZM7.74411 5.88378C6.8807 5.88378 6.15218 5.15527 6.15218 4.29184C6.15218 3.42842 6.8807 2.6999 7.74411 2.6999C8.60755 2.6999 9.33606 3.42842 9.33606 4.29184C9.30907 5.18224 8.60755 5.88378 7.74411 5.88378Z" fill="white"/>
<path d="M3.4537 1.27002V7.47588H1.9427L0 1.27002H3.4537Z" fill="white"/>
</g>
<defs>
<clipPath id="clip0_230_12026">
<rect width="36" height="8.52632" fill="white" transform="translate(0 0.0551758)"/>
</clipPath>
</defs>
</svg>
