<svg width="42" height="11" viewBox="0 0 42 11" fill="none" xmlns="http://www.w3.org/2000/svg">
<path d="M3.76953 8.51101H8.33282V9.45759H3.76953V8.51101ZM36.7701 5.47231L38.2089 3.88489H37.1366L35.9576 5.20425V3.88489H35.1031V7.22097H35.9618V5.81576L37.2225 7.22097H38.324L36.7701 5.47231ZM8.83543 5.6922C8.81239 6.32046 8.73281 6.43983 8.38518 6.43983V7.22307H8.51502C9.3883 7.22307 9.59563 6.77281 9.62704 5.76968L9.66474 4.65975H10.471V7.22097H11.3254V3.88489H8.89407L8.83543 5.6922ZM5.12658 6.26601H6.9276L7.22708 7.22097H8.22601L6.87944 3.20846C6.7496 2.82103 6.59881 2.51318 6.08364 2.51318C5.56846 2.51318 5.41139 2.82103 5.27318 3.20846L3.86168 7.22097H4.79988L5.12658 6.26601ZM6.03966 3.56029H6.06269L6.66583 5.46183H5.39673L6.03966 3.56029ZM25.9996 4.35818H25.0467V3.41579H27.2582V2.5781H24.1504V7.22097H25.9996C27.0237 7.22097 27.6121 6.70999 27.6121 5.77597C27.6121 4.89011 27.0153 4.35818 25.9996 4.35818ZM25.9556 6.38119H25.0467V5.17493H25.9556C26.4289 5.17493 26.6949 5.38435 26.6949 5.77806C26.6949 6.17177 26.4289 6.38119 25.9556 6.38119ZM17.5055 3.80741V2.57182H16.6531V3.80741C16.2056 3.82217 15.7822 4.01396 15.4759 4.34064C15.1696 4.66733 15.0055 5.10222 15.0196 5.54979C15.0044 5.99829 15.1679 6.43447 15.4743 6.7624C15.7806 7.09036 16.2046 7.28317 16.6531 7.29846V8.55499H17.5076V7.29846C17.7297 7.29115 17.9483 7.24011 18.1507 7.14822C18.3531 7.05635 18.5353 6.92544 18.6871 6.76301C18.8388 6.60056 18.957 6.4098 19.0349 6.20161C19.1128 5.99343 19.1489 5.77192 19.1411 5.54979C19.15 5.32751 19.1146 5.10567 19.0369 4.89724C18.9592 4.68878 18.8408 4.49789 18.6886 4.33569C18.5363 4.17352 18.3533 4.04326 18.1502 3.95256C17.947 3.86186 17.7279 3.81252 17.5055 3.80741ZM16.6552 6.49219C16.4291 6.46735 16.2218 6.35462 16.078 6.17833C15.9342 6.00204 15.8655 5.7763 15.8866 5.54979C15.8682 5.32385 15.9379 5.09954 16.0812 4.92387C16.2245 4.74819 16.4302 4.63479 16.6552 4.6074V6.49219ZM17.5097 6.49219V4.6074C17.7347 4.63479 17.9404 4.74819 18.0837 4.92387C18.2269 5.09954 18.2967 5.32385 18.2782 5.54979C18.2983 5.77607 18.2291 6.00122 18.0856 6.17728C17.942 6.35332 17.7354 6.46632 17.5097 6.49219ZM22.3431 6.1969V5.07231C22.3431 4.25138 21.8216 3.7383 20.9463 3.7383C20.0709 3.7383 19.5599 4.28279 19.518 4.85032H20.3829C20.4122 4.72886 20.5421 4.51316 20.9442 4.51316C21.0194 4.50348 21.0956 4.5114 21.167 4.53632C21.2386 4.56124 21.3033 4.60243 21.3561 4.65669C21.4089 4.71093 21.4485 4.77673 21.4715 4.84886C21.4945 4.921 21.5004 4.99751 21.4887 5.07231H20.651C19.8929 5.07231 19.4426 5.47231 19.4426 6.13408C19.4367 6.292 19.464 6.4494 19.5228 6.5961C19.5816 6.7428 19.6705 6.87551 19.7838 6.98567C19.8971 7.09582 20.0323 7.18095 20.1806 7.23557C20.3289 7.29017 20.487 7.31301 20.6447 7.30265C20.8227 7.31201 21.0003 7.27735 21.1618 7.20175C21.3232 7.12613 21.4635 7.01191 21.5703 6.86914C21.6399 6.98673 21.7412 7.08219 21.8629 7.14445C21.9844 7.20673 22.1211 7.23327 22.2572 7.22097H22.5525V6.4503C22.408 6.4503 22.3431 6.38119 22.3431 6.1969ZM21.4887 5.98748C21.4922 6.06997 21.4782 6.15228 21.4474 6.22894C21.4168 6.30561 21.3703 6.37493 21.3111 6.43231C21.2516 6.48969 21.1808 6.53384 21.1031 6.56186C21.0254 6.58986 20.9427 6.60109 20.8604 6.5948C20.5525 6.5948 20.3096 6.48381 20.3096 6.15083C20.3096 5.81785 20.5798 5.76968 20.808 5.76968H21.4887V5.98748ZM13.4532 4.89849H12.8396V3.88489H11.9851V7.22097H13.4678C14.3956 7.22097 14.7244 6.61784 14.7244 6.04821C14.7285 5.31315 14.2678 4.89849 13.4532 4.89849ZM13.3903 6.49219H12.8396V5.6545H13.3903C13.6856 5.6545 13.8636 5.78853 13.8636 6.07334C13.8636 6.35816 13.694 6.49219 13.3903 6.49219ZM30.8728 6.1969V5.07231C30.8728 4.25138 30.3514 3.7383 29.476 3.7383C28.6006 3.7383 28.0896 4.28279 28.0477 4.85032H28.9126C28.942 4.72886 29.0718 4.51316 29.4739 4.51316C29.5491 4.50348 29.6253 4.5114 29.6967 4.53632C29.7683 4.56124 29.8331 4.60243 29.8858 4.65669C29.9386 4.71093 29.9782 4.77673 30.0012 4.84886C30.0243 4.921 30.0301 4.99751 30.0184 5.07231H29.1807C28.4226 5.07231 27.9723 5.47231 27.9723 6.13408C27.9665 6.292 27.9937 6.4494 28.0526 6.5961C28.1112 6.7428 28.2002 6.87551 28.3135 6.98567C28.4268 7.09582 28.5621 7.18095 28.7103 7.23557C28.8586 7.29017 29.0167 7.31301 29.1744 7.30265C29.3541 7.31377 29.5338 7.27997 29.6973 7.2043C29.8607 7.12862 30.0027 7.01344 30.1105 6.86914C30.179 6.98468 30.2785 7.07882 30.3976 7.14097C30.5168 7.20313 30.6508 7.23084 30.7849 7.22097H31.0802V6.4503C30.9315 6.4503 30.8728 6.38119 30.8728 6.1969ZM30.0226 5.98748C30.0257 6.06989 30.0115 6.15202 29.9807 6.22855C29.9499 6.30507 29.9034 6.37424 29.8441 6.43156C29.7849 6.48886 29.7141 6.53302 29.6366 6.56117C29.5591 6.5893 29.4766 6.60075 29.3943 6.5948C29.0865 6.5948 28.8435 6.48381 28.8435 6.15083C28.8435 5.81785 29.1137 5.76968 29.342 5.76968H30.0226V5.98748ZM33.6016 5.12676H32.4225V3.88489H31.5681V7.22307H32.4225V5.9079H33.6016V7.22097H34.456V3.88489H33.6016V5.12676Z" fill="white"/>
</svg>
