<svg width="26" height="20" viewBox="0 0 26 20" fill="none" xmlns="http://www.w3.org/2000/svg">
<path d="M5.07851 19.7997V18.5122C5.07851 18.0187 4.7781 17.6968 4.2631 17.6968C4.0056 17.6968 3.72664 17.7826 3.53352 18.0616C3.38331 17.8256 3.16873 17.6968 2.84686 17.6968C2.63228 17.6968 2.4177 17.7612 2.24603 17.9972V17.7397H1.79541V19.7997H2.24603V18.6624C2.24603 18.2976 2.43915 18.126 2.73957 18.126C3.03998 18.126 3.19019 18.3191 3.19019 18.6624V19.7997H3.64081V18.6624C3.64081 18.2976 3.85539 18.126 4.13435 18.126C4.43476 18.126 4.58497 18.3191 4.58497 18.6624V19.7997H5.07851ZM11.752 17.7397H11.0224V17.1174H10.5718V17.7397H10.1641V18.1474H10.5718V19.0916C10.5718 19.5637 10.7649 19.8426 11.2799 19.8426C11.473 19.8426 11.6876 19.7783 11.8378 19.6924L11.7091 19.3062C11.5803 19.392 11.4301 19.4135 11.3228 19.4135C11.1083 19.4135 11.0224 19.2847 11.0224 19.0701V18.1474H11.752V17.7397ZM15.5716 17.6968C15.3141 17.6968 15.1424 17.8256 15.0351 17.9972V17.7397H14.5845V19.7997H15.0351V18.641C15.0351 18.2976 15.1853 18.1045 15.4643 18.1045C15.5501 18.1045 15.6574 18.126 15.7432 18.1474L15.872 17.7183C15.7861 17.6968 15.6574 17.6968 15.5716 17.6968ZM9.7993 17.9114C9.58472 17.7612 9.28431 17.6968 8.96244 17.6968C8.44744 17.6968 8.10411 17.9543 8.10411 18.362C8.10411 18.7053 8.36161 18.8985 8.81223 18.9628L9.02681 18.9843C9.26285 19.0272 9.3916 19.0916 9.3916 19.1989C9.3916 19.3491 9.21993 19.4564 8.91952 19.4564C8.61911 19.4564 8.38307 19.3491 8.23286 19.2418L8.01828 19.5851C8.25432 19.7568 8.57619 19.8426 8.89806 19.8426C9.49889 19.8426 9.84222 19.5637 9.84222 19.1774C9.84222 18.8126 9.56326 18.6195 9.1341 18.5551L8.91952 18.5337C8.7264 18.5122 8.57619 18.4693 8.57619 18.3406C8.57619 18.1903 8.7264 18.1045 8.96244 18.1045C9.21993 18.1045 9.47743 18.2118 9.60618 18.2762L9.7993 17.9114ZM21.773 17.6968C21.5155 17.6968 21.3438 17.8256 21.2365 17.9972V17.7397H20.7859V19.7997H21.2365V18.641C21.2365 18.2976 21.3867 18.1045 21.6657 18.1045C21.7515 18.1045 21.8588 18.126 21.9446 18.1474L22.0734 17.7183C21.9875 17.6968 21.8588 17.6968 21.773 17.6968ZM16.0222 18.7697C16.0222 19.392 16.4513 19.8426 17.1165 19.8426C17.417 19.8426 17.6315 19.7783 17.8461 19.6066L17.6315 19.2418C17.4599 19.3705 17.2882 19.4349 17.0951 19.4349C16.7303 19.4349 16.4728 19.1774 16.4728 18.7697C16.4728 18.3835 16.7303 18.126 17.0951 18.1045C17.2882 18.1045 17.4599 18.1689 17.6315 18.2976L17.8461 17.9329C17.6315 17.7612 17.417 17.6968 17.1165 17.6968C16.4513 17.6968 16.0222 18.1474 16.0222 18.7697ZM20.1851 18.7697V17.7397H19.7344V17.9972C19.5842 17.8041 19.3696 17.6968 19.0907 17.6968C18.5113 17.6968 18.0607 18.1474 18.0607 18.7697C18.0607 19.392 18.5113 19.8426 19.0907 19.8426C19.3911 19.8426 19.6057 19.7353 19.7344 19.5422V19.7997H20.1851V18.7697ZM18.5328 18.7697C18.5328 18.4049 18.7688 18.1045 19.1551 18.1045C19.5199 18.1045 19.7773 18.3835 19.7773 18.7697C19.7773 19.1345 19.5199 19.4349 19.1551 19.4349C18.7688 19.4135 18.5328 19.1345 18.5328 18.7697ZM13.1468 17.6968C12.5459 17.6968 12.1168 18.126 12.1168 18.7697C12.1168 19.4135 12.5459 19.8426 13.1682 19.8426C13.4686 19.8426 13.7691 19.7568 14.0051 19.5637L13.7905 19.2418C13.6189 19.3705 13.4043 19.4564 13.1897 19.4564C12.9107 19.4564 12.6318 19.3276 12.5674 18.9628H14.0909V18.7912C14.1124 18.126 13.7261 17.6968 13.1468 17.6968ZM13.1468 18.0831C13.4257 18.0831 13.6189 18.2547 13.6618 18.5766H12.5889C12.6318 18.2976 12.8249 18.0831 13.1468 18.0831ZM24.3265 18.7697V16.9243H23.8759V17.9972C23.7257 17.8041 23.5111 17.6968 23.2321 17.6968C22.6527 17.6968 22.2021 18.1474 22.2021 18.7697C22.2021 19.392 22.6527 19.8426 23.2321 19.8426C23.5325 19.8426 23.7471 19.7353 23.8759 19.5422V19.7997H24.3265V18.7697ZM22.6742 18.7697C22.6742 18.4049 22.9102 18.1045 23.2965 18.1045C23.6613 18.1045 23.9188 18.3835 23.9188 18.7697C23.9188 19.1345 23.6613 19.4349 23.2965 19.4349C22.9102 19.4135 22.6742 19.1345 22.6742 18.7697ZM7.61057 18.7697V17.7397H7.15995V17.9972C7.00974 17.8041 6.79516 17.6968 6.51621 17.6968C5.93684 17.6968 5.48621 18.1474 5.48621 18.7697C5.48621 19.392 5.93684 19.8426 6.51621 19.8426C6.81662 19.8426 7.0312 19.7353 7.15995 19.5422V19.7997H7.61057V18.7697ZM5.93684 18.7697C5.93684 18.4049 6.17288 18.1045 6.55912 18.1045C6.92391 18.1045 7.18141 18.3835 7.18141 18.7697C7.18141 19.1345 6.92391 19.4349 6.55912 19.4349C6.17288 19.4135 5.93684 19.1345 5.93684 18.7697Z" fill="white"/>
<path d="M16.4082 2.09717H9.64893V14.2425H16.4082V2.09717Z" fill="#FF5F00"/>
<path d="M10.0777 8.16928C10.0777 5.70159 11.2364 3.51285 13.0175 2.09661C11.7085 1.06662 10.0562 0.444336 8.25375 0.444336C3.98357 0.444336 0.528809 3.8991 0.528809 8.16928C0.528809 12.4394 3.98357 15.8942 8.25375 15.8942C10.0562 15.8942 11.7085 15.2719 13.0175 14.2419C11.2364 12.8472 10.0777 10.637 10.0777 8.16928Z" fill="#E33448"/>
<path d="M25.5277 8.16928C25.5277 12.4394 22.073 15.8942 17.8028 15.8942C16.0003 15.8942 14.348 15.2719 13.0391 14.2419C14.8415 12.8257 15.9788 10.637 15.9788 8.16928C15.9788 5.70159 14.8201 3.51285 13.0391 2.09661C14.348 1.06662 16.0003 0.444336 17.8028 0.444336C22.073 0.444336 25.5277 3.92056 25.5277 8.16928Z" fill="#F79E1B"/>
</svg>
