<svg width="30" height="9" viewBox="0 0 30 9" fill="none" xmlns="http://www.w3.org/2000/svg">
<path d="M0.583496 0.901693H3.3335C3.5835 0.901693 4.3335 0.818359 4.66683 1.98503C4.91683 2.73503 5.25016 3.90169 5.75016 5.65169H5.91683C6.41683 3.81836 6.8335 2.56836 7.00016 1.98503C7.3335 0.818359 8.16683 0.901693 8.50016 0.901693H11.0835V8.90169H8.41683V4.15169H8.25016L6.8335 8.90169H4.8335L3.41683 4.15169H3.16683V8.90169H0.583496M12.1668 0.901693H14.8335V5.65169H15.0835L16.8335 1.73503C17.1668 0.985026 17.9168 0.901693 17.9168 0.901693H20.4168V8.90169H17.7502V4.15169H17.5835L15.8335 8.06836C15.5002 8.81836 14.6668 8.90169 14.6668 8.90169H12.1668M24.0002 6.48503V8.90169H21.5002V4.73503H29.6668C29.3335 5.73503 28.1668 6.48503 26.8335 6.48503" fill="white"/>
<path d="M29.833 4.23568C30.1663 2.73568 29.1663 0.902344 26.9997 0.902344H21.333C21.4997 2.65234 22.9997 4.23568 24.583 4.23568" fill="white" fill-opacity="0.47"/>
</svg>
