<svg width="29" height="21" viewBox="0 0 29 21" fill="none" xmlns="http://www.w3.org/2000/svg">
<g clip-path="url(#clip0_247_3772)">
<path d="M22.6792 6.89387L22.897 6.20877L22.1765 6.23097C22.1157 6.23097 21.6732 6.21863 21.2439 5.91274C21.2759 5.91582 21.3079 5.92016 21.3406 5.92016C21.7824 5.92016 22.2098 5.65867 22.3811 5.28495L22.6912 4.60968C22.3027 4.61462 21.9475 4.56653 21.9475 4.56653C21.9443 4.56592 21.6644 4.53077 21.3406 4.20579C21.1083 3.97267 20.8209 3.84933 20.5096 3.84933C20.3734 3.84933 20.2516 3.87339 20.1468 3.9061C20.1631 3.85119 20.1788 3.79567 20.1876 3.73832C20.2868 3.10626 19.8726 2.624 19.8726 2.62464L19.3309 1.96539L18.9952 2.73995C18.9939 2.74242 18.9092 2.92372 18.7573 3.01253C18.7115 2.78497 18.5991 2.52904 18.3588 2.28421C17.9056 1.82293 17.3539 1.75451 17.0653 1.75451C16.9316 1.75451 16.8362 1.76868 16.8129 1.77239L16.1589 1.8988C16.1966 1.75511 16.2769 1.50537 16.4238 1.28026L16.7847 0.727726L15.8765 0.829468L15.5872 0.225763L15.0274 0.509433L14.5096 0.00683594L13.9931 0.509433L13.4313 0.225763L13.1426 0.829468L12.2351 0.727726L12.5966 1.28026C12.7435 1.50537 12.8238 1.75451 12.8608 1.89817L12.237 1.77731L12.2157 1.7736C12.1843 1.76868 12.0895 1.75451 11.9552 1.75451C11.6665 1.75451 11.1148 1.82357 10.6629 2.28421C10.4219 2.52841 10.3096 2.78497 10.2631 3.01253C10.1125 2.92495 10.0284 2.7461 10.0284 2.7461L9.692 1.96725L9.14159 2.63079C9.07445 2.71652 8.74245 3.16975 8.83278 3.73957C8.84223 3.79631 8.8573 3.8518 8.87361 3.90668C8.76944 3.874 8.64763 3.84997 8.51146 3.84997C8.20019 3.84997 7.91272 3.97331 7.67988 4.2064C7.35727 4.53016 7.07864 4.56653 7.08114 4.56653C7.08114 4.56653 6.78675 4.61835 6.33112 4.61032L6.63931 5.28559C6.81063 5.65992 7.23868 5.92074 7.67988 5.92074C7.71315 5.92074 7.74514 5.91643 7.77779 5.91335C7.34974 6.21921 6.90729 6.23155 6.85396 6.23219L6.11963 6.20877L6.34181 6.89326C6.45351 7.246 6.82693 7.83061 7.54242 7.89352C7.46459 8.21416 7.29201 8.57306 6.91294 8.72786L6.3663 8.94925L6.66439 9.45926C6.83258 9.73431 7.22737 10.0562 7.78971 10.0562C7.91145 10.0556 8.02881 10.0439 8.14182 10.0204C8.17066 10.1462 8.20707 10.272 8.24975 10.3966C8.41733 10.8862 8.27295 11.2279 8.2711 11.2316L8.0012 11.7872L8.60372 11.9432C8.61125 11.9457 8.79325 11.9944 9.02108 11.9944C9.12467 11.9944 9.22319 11.9839 9.31608 11.9623C9.38638 11.9463 9.45352 11.9247 9.51816 11.8988C9.59598 12.0363 9.69077 12.1615 9.80124 12.2737C10.1872 12.6629 10.7338 12.8602 11.4268 12.8602H11.4293L11.9238 12.8541L10.9021 13.2709L11.6778 13.6391C11.9596 13.7741 12.2941 13.9338 12.6343 14.056L12.5376 14.3162L12.805 14.4358C12.8289 14.4463 13.3429 14.6726 14.1977 14.7207C14.1977 14.7207 14.4041 14.73 14.5177 14.73C14.6314 14.73 14.8353 14.7201 14.8353 14.7201C15.6845 14.6708 16.1947 14.4469 16.2186 14.4358L16.4866 14.3156L16.3887 14.0547C16.7389 13.9289 17.0853 13.763 17.3552 13.6335L18.1165 13.2703L17.0979 12.8528L17.5943 12.859C18.2878 12.859 18.8351 12.6616 19.2205 12.2719C19.3303 12.1603 19.4251 12.0351 19.5035 11.8976C19.5682 11.9235 19.6359 11.9451 19.7062 11.9611C19.7985 11.9827 19.897 11.9932 20.0006 11.9932C20.2247 11.9932 20.4085 11.9445 20.4136 11.9432L21.0186 11.786L20.755 11.2408C20.7487 11.2266 20.6044 10.8856 20.7719 10.3954C20.8146 10.2702 20.8504 10.1444 20.8793 10.0192C20.9929 10.0426 21.1115 10.055 21.2339 10.055C21.95 10.055 22.2933 9.55976 22.3598 9.45245L22.6548 8.94803L22.1081 8.72728C21.7284 8.57248 21.5565 8.21294 21.4793 7.89291C22.1847 7.83369 22.5638 7.24909 22.6792 6.89387ZM12.9086 2.13438L12.901 2.13621L12.9073 2.12819L12.9086 2.13438Z" fill="white"/>
<path d="M14.5099 2.104C13.9313 2.10464 13.4976 2.29088 13.4028 2.5098L14.5099 2.939L15.6171 2.5098C15.5229 2.29088 15.0892 2.10464 14.5099 2.104Z" fill="white"/>
<path d="M14.5215 13.4666H14.5202H14.5108H14.5002H14.4996C14.1487 13.4691 13.6661 13.3981 13.4332 13.3315L13.1533 14.0759C13.3378 14.1406 13.9629 14.2639 14.5108 14.2639C15.0575 14.2639 15.6832 14.14 15.8671 14.0759L15.5878 13.3315C15.3543 13.3988 14.8723 13.4691 14.5215 13.4666Z" fill="white"/>
<path d="M16.6397 12.7266C16.4313 12.8425 15.9663 13.0164 15.6958 13.0972L15.923 13.712C16.3416 13.5998 16.6868 13.4684 16.9724 13.3278L16.501 13.1737L16.6397 12.7266Z" fill="white"/>
<path d="M12.381 12.7266L12.5203 13.1737L12.0483 13.3278C12.3333 13.4684 12.6803 13.5998 13.0971 13.712L13.3243 13.0972C13.055 13.0164 12.5893 12.8419 12.381 12.7266Z" fill="white"/>
<path d="M14.51 1.39251C14.9461 1.39251 15.3742 1.49486 15.703 1.67495C15.7332 1.57565 15.7752 1.45539 15.8323 1.32961L15.7081 1.34438L15.5775 1.35795L15.5223 1.2414L15.356 0.896066L15.0528 1.05149L14.9349 1.11068L14.8407 1.0194L14.5112 0.69873L14.1823 1.0194L14.0882 1.11068L13.9702 1.05149L13.6652 0.896066L13.5008 1.2414L13.4442 1.35795L13.3137 1.34438L13.1895 1.32961C13.2466 1.45602 13.288 1.57565 13.3187 1.67495C13.6482 1.49486 14.075 1.39251 14.51 1.39251Z" fill="white"/>
<path d="M21.1698 5.38381C21.2263 5.40293 21.284 5.41154 21.3411 5.41154C21.5878 5.41154 21.8263 5.25492 21.9085 5.07548C21.9085 5.07548 21.456 5.04833 20.9696 4.56303C20.8145 4.40576 20.6507 4.35889 20.5102 4.35889C20.2917 4.35889 20.1279 4.47236 20.1279 4.47236C20.7154 4.77948 20.8352 5.27281 21.1698 5.38381Z" fill="white"/>
<path d="M7.67906 5.41154C7.73616 5.41154 7.79391 5.40293 7.84913 5.38381C8.18493 5.27281 8.30541 4.77948 8.89286 4.47236C8.89286 4.47236 8.72843 4.35889 8.51125 4.35889C8.37008 4.35889 8.20624 4.40576 8.05059 4.56303C7.56482 5.04833 7.1123 5.07548 7.1123 5.07548C7.19328 5.25492 7.43239 5.41154 7.67906 5.41154Z" fill="white"/>
<path d="M21.3288 7.38876C21.3389 7.38937 21.3477 7.38937 21.3583 7.38937C21.974 7.38937 22.183 6.74124 22.183 6.74124H22.1711C22.0581 6.74124 21.1424 6.71535 20.4953 5.90687C20.0692 5.3753 19.7202 4.90787 19.0305 4.72409L18.9627 4.71237L18.9477 4.64454C18.9288 4.54093 19.001 4.44413 19.1648 4.33929C20.1163 3.72693 19.4705 2.94621 19.4705 2.94621C19.4705 2.94621 19.1987 3.57091 18.5905 3.57091C18.5761 3.57091 18.5604 3.5703 18.5454 3.5703C18.4763 3.5666 18.4098 3.56413 18.3426 3.54996L18.2303 3.52834C18.2303 3.52834 18.4035 3.06524 17.9855 2.63974C17.6705 2.31844 17.287 2.26416 17.0654 2.26416C16.9537 2.26416 16.8828 2.27836 16.8828 2.27836C17.093 2.54846 17.2449 2.99618 17.002 3.27244C16.7924 3.50987 16.2803 3.52156 16.2803 3.87555C16.2803 4.0254 16.4227 4.20053 16.6788 4.3578C17.4489 4.83446 18.2133 5.46658 18.5309 6.31387C18.9282 7.37089 18.4807 8.07203 17.8418 8.47412C17.8418 8.47412 18.042 8.65539 18.3326 8.67823C18.3916 8.68379 18.4493 8.68626 18.5033 8.68626C19.1165 8.68626 19.4334 8.40382 19.4334 8.40382C19.4334 8.40382 19.3813 8.79415 19.0619 9.15675C18.7675 9.49162 18.3809 9.68835 17.7916 9.69696C17.7916 9.69696 17.7728 9.96587 18.0338 10.1983C18.2008 10.3451 18.5868 10.3932 18.5868 10.3932C18.5868 10.3932 17.8644 10.5369 17.7847 11.5852C17.7414 12.1532 17.5939 12.3505 17.5939 12.3505H17.607C19.2834 12.3505 19.2401 10.9377 19.2401 10.9377C19.2401 10.9377 19.3569 11.3558 19.8245 11.465C19.8809 11.4798 19.9412 11.4853 19.9989 11.4853C20.1495 11.4853 20.2801 11.4508 20.2801 11.4508C20.2801 11.4508 20.0353 10.9433 20.2782 10.2335C20.4797 9.64456 20.447 9.20796 20.447 9.20796C20.447 9.20796 20.673 9.54342 21.2328 9.54653H21.2384C21.7048 9.54653 21.9081 9.19932 21.9081 9.19932C20.7903 8.74361 20.9008 7.27223 20.9008 7.27223C20.9008 7.27223 21.0458 7.37825 21.3288 7.38876ZM20.9924 8.92549C20.538 8.70538 20.2506 8.12074 20.1809 7.90985C20.1056 9.0692 19.5295 9.87398 18.856 10.6485C18.5064 11.0499 18.3847 11.4403 18.3847 11.4403C18.3847 11.4403 18.4518 10.9982 18.7544 10.638C19.3826 9.89615 19.9794 8.97301 20.024 7.90554C20.0548 7.16058 19.8596 6.55625 19.5552 6.05858C19.7253 6.5772 19.7014 7.21237 19.1234 7.80501C19.1234 7.80501 20.2738 6.45019 18.6653 5.06141C18.0213 4.5329 17.3171 4.2067 16.9544 3.97544C18.2648 4.39542 18.9044 3.9329 18.9044 3.9329C18.4857 4.28936 17.9441 4.28316 17.6083 4.23198C17.6993 4.27577 17.7941 4.3214 17.8964 4.37505C19.001 4.96458 19.9939 5.93463 20.1633 7.27836V7.26789C20.4207 8.58695 20.9924 8.92549 20.9924 8.92549Z" fill="white"/>
<path d="M10.4332 10.3932C10.4332 10.3932 10.8191 10.3457 10.9861 10.1983C11.2466 9.96587 11.2284 9.69696 11.2284 9.69696C10.6384 9.68896 10.2524 9.49162 9.95616 9.15739C9.63923 8.79479 9.58651 8.40443 9.58651 8.40443C9.58651 8.40443 9.90344 8.68684 10.516 8.68684C10.5712 8.68684 10.6283 8.68437 10.6874 8.67884C10.9779 8.65603 11.1788 8.4747 11.1788 8.4747C10.5399 8.07264 10.0917 7.37089 10.4884 6.31387C10.8066 5.46719 11.5704 4.83446 12.3405 4.3578C12.5965 4.20053 12.739 4.02601 12.739 3.87555C12.739 3.52156 12.2275 3.50987 12.0179 3.27244C11.775 2.99618 11.9275 2.54783 12.1371 2.27836C12.1371 2.27836 12.0675 2.26416 11.9551 2.26416C11.7342 2.26416 11.3507 2.31844 11.0357 2.63974C10.6164 3.06524 10.7903 3.52834 10.7903 3.52834L10.6779 3.54996C10.6108 3.56413 10.5436 3.5666 10.4752 3.5703C10.4595 3.5703 10.4457 3.57091 10.4306 3.57091C9.82123 3.57091 9.55075 2.94684 9.55075 2.94684C9.55075 2.94684 8.9049 3.72757 9.85579 4.3399C10.0196 4.44474 10.0911 4.54157 10.0723 4.64516L10.0572 4.71301L9.98819 4.7247C9.29969 4.90848 8.95011 5.37595 8.52398 5.90751C7.87813 6.71474 6.96369 6.74124 6.84948 6.74124H6.83691C6.83691 6.74124 7.04591 7.38937 7.66161 7.38937C7.67164 7.38937 7.68042 7.38937 7.6911 7.38876C7.97418 7.37889 8.1198 7.27223 8.1198 7.27223C8.1198 7.27223 8.22898 8.74297 7.11246 9.19932C7.11246 9.19932 7.3158 9.54653 7.78212 9.54653H7.78774C8.34822 9.54342 8.57355 9.20796 8.57355 9.20796C8.57355 9.20796 8.5409 9.64456 8.74171 10.2335C8.98461 10.9433 8.74112 11.4508 8.74112 11.4508C8.74112 11.4508 8.87167 11.4853 9.02164 11.4853C9.08001 11.4853 9.13965 11.4798 9.19552 11.465C9.66245 11.3558 9.77981 10.9377 9.77981 10.9377C9.77981 10.9377 9.73713 12.3505 11.4135 12.3505H11.4254C11.4254 12.3505 11.2786 12.1532 11.2359 11.5852C11.1555 10.5369 10.4332 10.3932 10.4332 10.3932ZM10.1639 10.6485C9.49049 9.87398 8.91497 9.0692 8.83903 7.90985C8.76935 8.12016 8.48315 8.70538 8.02879 8.92549C8.02879 8.92549 8.59989 8.58695 8.8566 7.26789V7.27836C9.02668 5.93524 10.0189 4.96458 11.1242 4.37505C11.2252 4.32082 11.3212 4.27513 11.4116 4.23198C11.0758 4.28316 10.5342 4.28936 10.1156 3.9329C10.1156 3.9329 10.7552 4.39542 12.0649 3.97544C11.7022 4.2067 10.9986 4.5329 10.3547 5.06141C8.74551 6.45019 9.89655 7.80501 9.89655 7.80501C9.31788 7.21179 9.29466 6.5772 9.46476 6.05858C9.15972 6.55686 8.96516 7.16058 8.99653 7.90554C9.04048 8.97301 9.63734 9.89615 10.2643 10.638C10.5675 10.9975 10.6359 11.4403 10.6359 11.4403C10.6359 11.4403 10.5128 11.0499 10.1639 10.6485Z" fill="white"/>
<path d="M13.2706 5.22786C13.2982 5.25687 13.3252 5.28832 13.3509 5.31974C13.3572 5.32716 13.3628 5.33394 13.3691 5.34259C13.393 5.37404 13.4175 5.40732 13.4407 5.44125C13.4457 5.44803 13.4507 5.45606 13.4564 5.46406C13.4846 5.50599 13.511 5.54917 13.5373 5.59357C13.779 6.00369 14.1662 6.24848 14.5095 6.24912C14.8535 6.24848 15.2394 6.00369 15.4823 5.59357C15.5093 5.54795 15.5363 5.50355 15.5645 5.4622C15.5689 5.45606 15.5733 5.4505 15.5771 5.44434C15.6009 5.40919 15.626 5.37468 15.6524 5.34133C15.658 5.33394 15.6631 5.32777 15.6681 5.32164C15.6951 5.28893 15.7227 5.25687 15.7509 5.22728C15.7559 5.22233 15.7597 5.21802 15.7641 5.21433C15.8871 5.09038 16.034 4.99602 16.226 4.94358L16.1407 4.89488H16.1356L15.7955 4.70063L15.4459 4.50391L14.512 5.00344L14.5095 5.00154L14.5076 5.00344L13.5731 4.50391L13.2241 4.70002L12.8833 4.89427H12.8796L12.793 4.94297C12.9856 4.99541 13.1319 5.08851 13.2555 5.21247C13.2612 5.21741 13.2649 5.22297 13.2706 5.22786ZM14.1317 5.18779H14.5271H14.9218V5.45423C14.8289 5.34259 14.6482 5.3654 14.6482 5.3654V5.74959C14.6482 5.74959 14.6551 5.93831 14.7223 6.02033H14.5271H14.3313C14.3996 5.93889 14.4059 5.74959 14.4059 5.74959V5.3654C14.4059 5.3654 14.2258 5.34259 14.1317 5.45423V5.18779Z" fill="white"/>
<path d="M14.4289 4.67071V3.11113L13.4185 2.77441L13.6852 4.28587L14.4289 4.67071ZM14.2118 3.49407V3.74445L14.1628 3.72225C14.1603 3.72038 14.0888 3.70438 13.9632 3.60694C13.7561 3.44906 13.7524 3.30352 13.7524 3.30352L14.2118 3.49407Z" fill="white"/>
<path d="M15.3356 4.28587L15.6012 2.77441L14.5913 3.11113V4.67071L15.3356 4.28587ZM14.8085 3.49407L15.2679 3.30416C15.2679 3.30416 15.2641 3.44967 15.0564 3.60755C14.9315 3.70496 14.8593 3.72102 14.8568 3.72286L14.8078 3.74506V3.49407H14.8085Z" fill="white"/>
<path d="M13 8.28639C13.0985 8.32157 13.2178 8.32896 13.2786 8.32896C13.2811 8.32157 13.2843 8.31232 13.2874 8.3012C13.2931 8.28334 13.2981 8.26605 13.3019 8.24633C13.3188 8.16 13.3251 8.06194 13.3263 7.99903C13.2849 7.97375 13.2265 7.92874 13.1939 7.86152C13.1562 7.78381 13.1029 7.74805 13.0244 7.74805C12.9228 7.74805 12.8136 7.80787 12.7671 7.83621C12.7301 8.05147 12.8914 8.24694 13 8.28639Z" fill="white"/>
<path d="M15.2351 7.45898C15.0474 7.6594 14.6803 8.00844 14.6621 8.02634L14.6401 8.04851L13.4797 8.03065C13.479 8.14351 13.4602 8.2397 13.442 8.31C13.4389 8.32173 13.4357 8.33406 13.4326 8.3464L14.8133 8.59C14.9571 8.49133 15.3525 8.20764 15.5056 8.09667C15.3939 7.93631 15.3832 7.74637 15.4084 7.61253C15.3355 7.56629 15.2797 7.5145 15.2351 7.45898Z" fill="white"/>
<path d="M15.3926 6.08731C15.1252 6.34813 14.8685 6.44436 14.6394 6.46656C14.598 6.47086 14.556 6.47334 14.5133 6.47334H14.5101H14.5076C14.4649 6.47334 14.4223 6.47086 14.3809 6.46656C14.3407 6.46286 14.2986 6.45669 14.2566 6.44744C14.2415 6.50604 14.2227 6.62874 14.2767 6.74469C14.325 6.85014 14.4235 6.92846 14.5673 6.98026L14.6156 6.99873L14.6162 7.04994C14.6162 7.06536 14.6275 7.39712 14.9959 7.48901C15.0562 7.42797 15.1108 7.37306 15.1509 7.32744C15.0756 7.15353 15.1152 6.97595 15.2244 6.88898C15.2193 6.90749 15.1717 7.34286 15.5269 7.5044L15.5852 7.53155L15.5677 7.59262C15.562 7.6111 15.4434 8.0323 15.8733 8.18893L15.9493 8.21733L15.9154 8.29007C15.9079 8.3061 15.739 8.68846 16.1363 8.90552H16.998V8.23333C16.6917 8.19632 16.5618 7.95461 16.5286 7.78318C16.3861 7.75911 16.2756 7.69868 16.2003 7.60001C16.0196 7.36631 16.1752 7.1523 16.1771 7.14058C16.1764 7.14244 16.1771 7.37062 16.3202 7.51121C16.3911 7.57903 16.4752 7.63147 16.6026 7.64319L16.6654 7.64875L16.671 7.71163C16.6723 7.72519 16.7068 8.03355 16.9986 8.08226L16.998 6.70951C16.998 6.49679 17.0614 6.28281 17.1373 6.08545H15.3926V6.08731Z" fill="white"/>
<path d="M13.0735 6.71647L13.0503 7.59091L13.1513 7.60572L13.3986 6.76704L13.2731 6.50928L13.0735 6.71647Z" fill="white"/>
<path d="M15.8001 10.7264C15.8076 10.7264 15.8164 10.7276 15.8246 10.7295C15.9783 10.7726 16.0173 11.3178 16.2871 11.3665C16.3135 11.372 16.3379 11.3733 16.3593 11.3733C16.4371 11.3733 16.4835 11.3406 16.5338 11.2826C16.5338 11.2826 16.3982 11.0729 16.2965 10.9317C16.1616 10.7467 16.0568 10.5229 15.8057 10.5229C15.8001 10.5229 15.7925 10.5229 15.7863 10.5235C15.7034 10.5278 15.6526 10.5673 15.6526 10.5673C15.5509 10.5043 15.4561 10.4828 15.3702 10.4828C15.2126 10.4828 15.0902 10.5537 15.0294 10.5537H15.0268L14.4658 10.4995C14.3779 10.4914 14.3089 10.4045 14.2838 10.3706C14.2775 10.3613 14.2743 10.3558 14.2743 10.3558C14.2743 10.3409 14.2743 10.3256 14.2731 10.312C14.2542 9.86117 13.899 9.66817 13.7729 9.66509C13.7729 9.66509 13.7879 9.57934 13.7534 9.54667L13.6298 9.69407L13.2237 9.49365L13.513 9.82602L13.2676 10.0968C13.2369 10.1276 13.2407 10.1695 13.2532 10.1868L13.3593 10.2787L13.4936 10.1985C13.5005 10.1935 13.5124 10.1923 13.5275 10.1923C13.5645 10.1923 13.6204 10.2016 13.6706 10.2016C13.7252 10.2016 13.7729 10.1899 13.7785 10.1393C13.7616 10.3064 13.604 10.5969 13.7076 10.825L13.7842 10.9971L13.2884 10.9268L13.0561 11.3122C12.9846 11.4405 12.9733 11.5792 13.0423 11.6545L13.129 11.7612C13.129 11.7612 13.2507 11.6341 13.2783 11.5509L13.2388 11.5083C13.2055 11.4726 13.2074 11.4405 13.2275 11.4016L13.3731 11.1642L13.9587 11.2999L13.9894 11.2481C14.0289 11.1833 14.0861 11.1636 14.1488 11.1636C14.1745 11.1636 14.2009 11.1667 14.2285 11.171C14.3371 11.192 14.516 11.2203 14.6948 11.2203C14.8913 11.2203 15.0859 11.1858 15.1894 11.0717C15.4015 11.3807 15.8315 11.43 15.7976 11.5866L15.6846 12.1157C15.7593 12.1127 15.8315 12.1077 15.8999 12.0985L16.0072 11.5478C16.0191 11.488 16.0304 11.4072 16.0304 11.4072C15.989 11.3659 15.8886 11.2783 15.8321 11.1722C15.7561 11.0292 15.7976 10.9546 15.7266 10.7683C15.7292 10.7695 15.7505 10.7264 15.8001 10.7264ZM13.6097 9.95306C13.5808 9.95248 13.5601 9.92841 13.5614 9.90001C13.5639 9.8729 13.5871 9.85134 13.6153 9.85378C13.6442 9.855 13.6649 9.87968 13.6637 9.90679C13.6612 9.93394 13.6373 9.95489 13.6097 9.95306Z" fill="white"/>
<path d="M12.8098 11.2274C12.8098 11.2274 13.0037 11.149 13.0213 11.0929L12.9956 11.0294C12.9774 10.9881 12.9799 10.9431 13.015 10.9184L13.2246 10.7759L13.5749 10.8419C13.5749 10.8419 13.5115 10.7642 13.5178 10.66L13.1839 10.5903L12.8688 10.779C12.7339 10.8783 12.7238 11.0405 12.7684 11.1367L12.8098 11.2274Z" fill="white"/>
<path d="M15.2852 12.124C15.3479 12.1215 15.4169 12.1202 15.4929 12.1202C15.4929 12.1202 15.673 11.6029 15.6831 11.5862C15.582 11.5424 15.3724 11.4333 15.2914 11.3833C15.3448 11.4617 15.4747 11.5517 15.449 11.6208L15.2852 12.124Z" fill="white"/>
<path d="M16.9999 9.05566H12.021V10.8958C12.021 11.6482 12.5752 12.1193 13.393 12.1193C14.0764 12.1193 14.2566 12.1452 14.5108 12.3931C14.6858 12.2217 14.8308 12.1575 15.1283 12.1335L15.1352 12.1051L15.2921 11.6284C15.2834 11.6179 15.0267 11.3312 15.0267 11.3312C14.925 11.3645 14.8396 11.37 14.6959 11.37C14.5484 11.37 14.3821 11.3534 14.202 11.3201C14.1838 11.3158 14.1668 11.3145 14.1499 11.3145C14.1279 11.3145 14.126 11.3164 14.1204 11.3269L14.089 11.3774L14.0319 11.47L13.9246 11.4459L13.4469 11.3355L13.3817 11.4416L13.3917 11.4527L13.4501 11.5156L13.4244 11.5976C13.3892 11.7049 13.275 11.83 13.2404 11.8646L13.1212 11.9904L13.0126 11.8554L12.931 11.7548C12.8451 11.6605 12.825 11.5156 12.8733 11.3639C12.872 11.3651 12.8702 11.3657 12.8683 11.3657L12.7333 11.4206L12.6725 11.2911L12.6298 11.1992C12.5563 11.0376 12.5833 10.8015 12.781 10.659L13.1658 10.4456L13.5317 10.5165C13.5405 10.482 13.5536 10.3587 13.5643 10.3272C13.5574 10.3266 13.5505 10.3248 13.5436 10.3248L13.3327 10.4018L13.1294 10.2637C13.1294 10.2637 13.0497 10.1885 13.1218 10.1132L13.3189 9.82032L12.82 9.20487L13.5869 9.51443L13.6377 9.45216L13.7413 9.33068L13.8587 9.44044C13.8919 9.47189 13.9108 9.51076 13.9201 9.54961C14.1317 9.63038 14.5101 9.86903 14.5434 10.2569L14.4248 10.3038V10.3069C14.4517 10.3383 14.4743 10.3513 14.4813 10.3525L15.0285 10.4056C15.0423 10.4031 15.0599 10.3969 15.0794 10.3913C15.1472 10.3686 15.2494 10.3359 15.3706 10.3359C15.4691 10.3359 15.5645 10.3581 15.6561 10.4C15.69 10.3877 15.7315 10.3784 15.7792 10.3753L15.8055 10.3747C16.0986 10.3747 16.2442 10.5899 16.361 10.7614C16.3804 10.791 16.3999 10.8194 16.42 10.8471C16.5223 10.9889 16.6559 11.1967 16.6616 11.2054L16.7218 11.2979L16.6478 11.3824C16.5907 11.4471 16.5053 11.523 16.3585 11.523C16.3283 11.523 16.2951 11.5199 16.2593 11.5131C16.2279 11.5075 16.1997 11.4983 16.172 11.4872C16.1676 11.5156 16.162 11.5495 16.1564 11.5785L16.0603 12.0706C16.6346 11.9318 16.9993 11.5057 16.9993 10.8964L16.9999 9.05566Z" fill="#FFDD2D"/>
<path d="M12.0209 8.90771H15.8927C15.6993 8.71163 15.7018 8.46312 15.7514 8.30155C15.6949 8.27504 15.6485 8.24295 15.6071 8.20841C15.4558 8.31819 14.9939 8.64873 14.8734 8.73136L14.8477 8.74862L13.3282 8.47851H13.2974C13.261 8.47851 13.2077 8.47729 13.1493 8.47051C13.133 8.53772 13.074 8.58399 13.0062 8.58399C12.9987 8.58399 12.9899 8.58338 12.9818 8.58151C12.9422 8.57471 12.9077 8.55501 12.8845 8.5223C12.8606 8.49024 12.8512 8.45201 12.8581 8.41255L12.8637 8.38049C12.7069 8.27193 12.5625 8.02958 12.6265 7.77429L12.6328 7.74714L12.6548 7.73172C12.6579 7.72925 12.6842 7.71202 12.7232 7.68979L12.6127 7.67315C12.5713 7.66576 12.5437 7.62811 12.55 7.58804C12.5569 7.54733 12.5958 7.51835 12.6366 7.52639L12.8995 7.56709L12.9234 6.65686L13.315 6.24983L13.5592 6.75492L13.3012 7.63058L13.5334 7.66634C13.5742 7.67254 13.6025 7.71013 13.5962 7.75145C13.5899 7.78785 13.5585 7.8131 13.5215 7.8131C13.5177 7.8131 13.5133 7.8131 13.5096 7.81252L13.3206 7.78229C13.3232 7.78785 13.3269 7.79093 13.3294 7.7971C13.3496 7.83778 13.3941 7.8674 13.4205 7.87973L14.579 7.8976C14.628 7.85075 14.7497 7.73355 14.8746 7.60963C14.5897 7.50354 14.4862 7.26181 14.4686 7.10149C14.3091 7.03486 14.1993 6.935 14.1385 6.80488C14.0644 6.64392 14.0908 6.48298 14.1102 6.40463C13.9558 6.34914 13.7933 6.248 13.6276 6.08643H11.8828C11.9575 6.28376 12.0209 6.49773 12.0209 6.71052V8.90771Z" fill="#FFDD2D"/>
<path d="M13.6156 9.8542C13.5874 9.85172 13.5635 9.87331 13.5616 9.90046C13.5598 9.9288 13.5811 9.95286 13.61 9.95347C13.6376 9.95595 13.662 9.93497 13.6645 9.90724C13.6645 9.88009 13.6445 9.85484 13.6156 9.8542Z" fill="black"/>
<path d="M16.993 13.1907L16.7062 13.0828L16.7853 12.7917L16.8725 12.4741C16.8725 12.4741 16.3642 12.7448 15.648 12.9483C15.4447 13.0057 15.2909 13.0316 15.2909 13.0316V13.2474C15.2909 13.2474 14.9081 13.3128 14.5209 13.3128H14.5165H14.5108H14.5033H14.4989C14.1116 13.3128 13.7288 13.2474 13.7288 13.2474V13.0316C13.7288 13.0316 13.5744 13.0057 13.3717 12.9483C12.6556 12.7448 12.1479 12.4741 12.1479 12.4741L12.2338 12.7917L12.3148 13.0828L12.0273 13.1907L11.7085 13.3079C12.0744 13.4812 12.5809 13.734 13.0447 13.8585L12.9355 14.1521C12.9355 14.1521 13.5236 14.4154 14.5033 14.4179V14.4185H14.5064H14.5108H14.5146H14.5171V14.4179C15.498 14.4154 16.0855 14.1521 16.0855 14.1521L15.9757 13.8585C16.4395 13.734 16.9472 13.4812 17.3112 13.3079L16.993 13.1907ZM12.0487 13.3276L12.5207 13.1734L12.3813 12.7263C12.5891 12.8422 13.0554 13.0162 13.3252 13.0969L13.0974 13.7118C12.6807 13.5989 12.3336 13.4676 12.0487 13.3276ZM14.5108 14.2637C13.9629 14.2637 13.3372 14.1397 13.1533 14.0756L13.4332 13.3313C13.6654 13.3979 14.1487 13.4688 14.4995 13.4663H14.5002H14.5108H14.5202H14.5215C14.8723 13.4688 15.3543 13.3979 15.5878 13.3313L15.8671 14.0756C15.6832 14.1404 15.0581 14.2637 14.5108 14.2637ZM15.9229 13.7118L15.6958 13.0969C15.9663 13.0162 16.4313 12.8422 16.6397 12.7263L16.501 13.1734L16.9723 13.3276C16.6867 13.4676 16.3416 13.5989 15.9229 13.7118Z" fill="black"/>
<path d="M14.5098 1.57272C15.0936 1.57272 15.5605 1.76264 15.8184 1.96552C15.8184 1.96552 15.895 1.51229 16.1567 1.11207L15.6866 1.16448L15.4406 0.650784L14.968 0.890032L14.5098 0.444824L14.0529 0.890032L13.5797 0.650784L13.3343 1.16448L12.8643 1.11207C13.126 1.51229 13.2026 1.96552 13.2026 1.96552C13.4611 1.76264 13.9268 1.57272 14.5098 1.57272ZM13.313 1.34453L13.4435 1.3581L13.5 1.24155L13.6645 0.896216L13.9695 1.051L14.0875 1.1102L14.1816 1.01895L14.5105 0.698279L14.84 1.01895L14.9341 1.1102L15.0521 1.051L15.3553 0.896216L15.5216 1.24155L15.5768 1.3581L15.7074 1.34453L15.8316 1.32972C15.7745 1.45617 15.7325 1.57579 15.7023 1.67506C15.3735 1.49501 14.9454 1.39263 14.5093 1.39263C14.0749 1.39263 13.6475 1.49501 13.3174 1.67506C13.2867 1.57579 13.2452 1.45553 13.1881 1.32972L13.313 1.34453Z" fill="black"/>
<path d="M21.358 7.5869C22.113 7.5869 22.3653 6.83207 22.376 6.80001L22.4601 6.53424L22.177 6.54285H22.1757C22.076 6.54285 21.2431 6.52126 20.6525 5.78372L20.5966 5.71526C20.2107 5.23304 19.8448 4.77486 19.1908 4.5658C19.2097 4.54913 19.2366 4.52818 19.2737 4.50476C19.6207 4.28028 19.8228 4.0077 19.8737 3.69136C19.9477 3.21525 19.6389 2.83603 19.6251 2.82059L19.4149 2.56529L19.2837 2.86808C19.2749 2.8872 19.054 3.37191 18.5896 3.37191H18.555C18.523 3.37005 18.4929 3.3688 18.4628 3.36635C18.4791 3.1499 18.4389 2.81504 18.1302 2.50115C17.7592 2.12313 17.3036 2.06641 17.0651 2.06641C16.9377 2.06641 16.8529 2.08182 16.8442 2.08305L16.5266 2.14472L16.7224 2.39817C16.8762 2.59367 17.0155 2.95442 16.8504 3.14312C16.7977 3.20292 16.6892 3.25165 16.585 3.30036C16.3709 3.3972 16.0791 3.53162 16.0791 3.87453C16.0791 4.0965 16.2542 4.32837 16.5718 4.52571C17.5119 5.10662 18.0919 5.71279 18.3423 6.38192C18.7295 7.41115 18.2243 7.9982 17.7335 8.30718L17.5132 8.44655L17.7059 8.62043C17.7316 8.64263 17.9676 8.84678 18.3159 8.87634C18.3818 8.88067 18.4452 8.88437 18.5042 8.88437C18.7276 8.88437 18.9178 8.84983 19.0722 8.8036C19.0295 8.87698 18.9774 8.95158 18.9115 9.02683C18.631 9.34625 18.2858 9.49179 17.7893 9.49921L17.6048 9.50229L17.5904 9.68421C17.5885 9.72058 17.5747 10.0579 17.8998 10.3447C17.9494 10.3891 18.0096 10.4254 18.0724 10.4557C17.8521 10.6505 17.6281 10.9897 17.5848 11.5712C17.5483 12.0565 17.4304 12.236 17.4291 12.2379L17.2251 12.5437L17.5936 12.5487C18.2023 12.5487 18.6686 12.3834 18.9919 12.0565C19.1826 11.8629 19.2919 11.6446 19.3565 11.451C19.4626 11.5398 19.5994 11.6175 19.7776 11.6588C19.8454 11.6742 19.9195 11.6829 19.9992 11.6829C20.1712 11.6829 20.3149 11.6471 20.3312 11.6434L20.5666 11.5817L20.4624 11.3659C20.4548 11.3486 20.2584 10.9157 20.4699 10.2978C20.5609 10.0308 20.6073 9.79151 20.6299 9.60527C20.7781 9.68112 20.9764 9.74403 21.2331 9.74464C21.8155 9.74464 22.0722 9.31727 22.0841 9.2994L22.199 9.10329L21.9862 9.01696C21.2921 8.73391 21.1383 7.97353 21.1076 7.56161C21.1703 7.57331 21.2418 7.58442 21.3228 7.5869H21.358ZM21.9084 9.1989C21.9084 9.1989 21.705 9.54605 21.2387 9.54605H21.2331C20.6732 9.543 20.4473 9.20752 20.4473 9.20752C20.4473 9.20752 20.4799 9.64414 20.2778 10.233C20.035 10.9429 20.2797 11.4504 20.2797 11.4504C20.2797 11.4504 20.1492 11.4849 19.9985 11.4849C19.9408 11.4849 19.8806 11.4793 19.8241 11.4645C19.3565 11.3554 19.2398 10.9373 19.2398 10.9373C19.2398 10.9373 19.2831 12.3501 17.6067 12.3501H17.5936C17.5936 12.3501 17.741 12.1528 17.7849 11.5848C17.8647 10.5364 18.5871 10.3928 18.5871 10.3928C18.5871 10.3928 18.2017 10.3453 18.0347 10.1979C17.7737 9.96539 17.7919 9.69654 17.7919 9.69654C18.3818 9.68851 18.7678 9.49118 19.0622 9.15634C19.381 8.79373 19.4337 8.40337 19.4337 8.40337C19.4337 8.40337 19.1168 8.68582 18.5036 8.68582C18.4496 8.68582 18.3918 8.68334 18.3329 8.67778C18.0429 8.65497 17.8421 8.47367 17.8421 8.47367C18.4804 8.07159 18.9285 7.36984 18.5312 6.31282C18.213 5.46614 17.4486 4.8334 16.6791 4.35671C16.423 4.19951 16.2806 4.02495 16.2806 3.87453C16.2806 3.52051 16.7927 3.50942 17.0029 3.27138C17.2452 2.99512 17.0933 2.54678 16.8831 2.27731C16.8831 2.27731 16.954 2.26311 17.0657 2.26311C17.2873 2.26311 17.6707 2.31799 17.9858 2.63869C18.4044 3.06419 18.2306 3.52732 18.2306 3.52732L18.3429 3.54891C18.4101 3.56307 18.4766 3.56555 18.5456 3.5686C18.5607 3.5686 18.5757 3.56924 18.5908 3.56924C19.199 3.56924 19.4707 2.94455 19.4707 2.94455C19.4707 2.94455 20.1172 3.72587 19.1657 4.33763C19.0019 4.44246 18.9297 4.53929 18.9486 4.64288L18.9636 4.7107L19.0314 4.72243C19.7212 4.9062 20.0701 5.37364 20.4963 5.90523C21.1434 6.71368 22.059 6.73958 22.172 6.73958H22.1839C22.1839 6.73958 21.9749 7.3877 21.3592 7.3877C21.3492 7.3877 21.3404 7.3877 21.3297 7.38709C21.0467 7.37723 20.9017 7.27053 20.9017 7.27053C20.9017 7.27053 20.7906 8.74255 21.9084 9.1989Z" fill="black"/>
<path d="M20.0317 4.64735C20.3135 4.79469 20.4773 4.99206 20.621 5.16719C20.7622 5.33801 20.8965 5.50267 21.1061 5.57111C21.1808 5.59639 21.2599 5.60812 21.3403 5.60812C21.6553 5.60812 21.9716 5.41879 22.0915 5.15668L22.212 4.894L21.9202 4.87672C21.9064 4.87614 21.531 4.84279 21.113 4.42287C20.941 4.25079 20.7334 4.16016 20.5093 4.16016C20.2356 4.16016 20.0329 4.29458 20.0103 4.30814L19.7417 4.49378L20.0317 4.64735ZM20.5099 4.35871C20.6505 4.35871 20.8143 4.40559 20.9693 4.56285C21.4557 5.04815 21.9082 5.0753 21.9082 5.0753C21.826 5.25416 21.5875 5.41136 21.3408 5.41136C21.2837 5.41136 21.2266 5.40275 21.1695 5.38364C20.835 5.27263 20.7151 4.7793 20.127 4.47219C20.127 4.47219 20.2915 4.35871 20.5099 4.35871Z" fill="black"/>
<path d="M20.1636 7.26773V7.27756C19.9942 5.93447 19.0012 4.96445 17.8966 4.37425C17.7943 4.32063 17.7002 4.275 17.6086 4.23121C17.945 4.28239 18.4866 4.28856 18.9046 3.93213C18.9046 3.93213 18.2651 4.39462 16.9546 3.97467C17.3174 4.20593 18.0222 4.53216 18.6655 5.06064C20.2741 6.44939 19.123 7.80424 19.123 7.80424C19.701 7.2116 19.7249 6.57642 19.5548 6.05781C19.8592 6.55544 20.0538 7.15981 20.0236 7.90474C19.9791 8.97221 19.3822 9.89538 18.7539 10.6373C18.4521 10.9974 18.3843 11.4395 18.3843 11.4395C18.3843 11.4395 18.506 11.0492 18.8556 10.6477C19.5291 9.87318 20.1046 9.06843 20.1799 7.90905C20.2496 8.11936 20.5364 8.70458 20.9914 8.92475C20.9927 8.92536 20.4209 8.58679 20.1636 7.26773Z" fill="black"/>
<path d="M11.5909 12.2374C11.5903 12.2356 11.4736 12.0561 11.4359 11.5708C11.392 10.9892 11.1685 10.6501 10.9476 10.4552C11.0117 10.4256 11.0706 10.3892 11.1202 10.3442C11.4447 10.0574 11.4309 9.72013 11.429 9.68373L11.4165 9.50178L11.2307 9.49873C10.7355 9.4907 10.3897 9.34516 10.1091 9.02635C10.0439 8.95113 9.99113 8.8765 9.94845 8.80312C10.1029 8.84935 10.2918 8.88389 10.5158 8.88389C10.5761 8.88389 10.6382 8.8802 10.7041 8.87589C11.0524 8.84627 11.2884 8.6428 11.3148 8.61996L11.5075 8.44608L11.2872 8.30667C10.7945 7.99712 10.2911 7.41006 10.6777 6.38141C10.9282 5.71234 11.5075 5.10614 12.4489 4.52523C12.7665 4.32789 12.9403 4.09602 12.9403 3.87402C12.9403 3.53117 12.6491 3.39611 12.4351 3.29991C12.3309 3.25118 12.2223 3.20247 12.1696 3.14265C12.0039 2.95456 12.1439 2.59318 12.297 2.39769L12.4941 2.14423L12.1753 2.08256C12.1659 2.08136 12.0824 2.06592 11.9543 2.06592C11.7158 2.06592 11.2614 2.12267 10.8899 2.50069C10.5805 2.81518 10.5397 3.15007 10.5554 3.36587C10.5252 3.36835 10.4952 3.3696 10.4637 3.37143H10.4299C9.96417 3.37143 9.74387 2.88671 9.7351 2.86759L9.60391 2.5648L9.39177 2.82013C9.37985 2.83554 9.0698 3.21542 9.14513 3.69085C9.19535 4.00722 9.39742 4.2798 9.74449 4.50428C9.78217 4.5277 9.80851 4.54865 9.82735 4.56532C9.17397 4.77435 8.80874 5.23317 8.42272 5.71542L8.36688 5.78389C7.77694 6.52139 6.94221 6.54298 6.84242 6.54298L6.55811 6.53437L6.6447 6.80017C6.65474 6.8322 6.90641 7.58703 7.66208 7.58703L7.69846 7.58581C7.77817 7.58333 7.84973 7.57286 7.91376 7.56052C7.88235 7.97183 7.72861 8.73221 7.03381 9.01587L6.8217 9.1022L6.93656 9.29831C6.94786 9.31618 7.20519 9.74355 7.78886 9.74355C8.04365 9.74291 8.24196 9.68003 8.39073 9.60418C8.41333 9.79042 8.45975 10.0297 8.55077 10.2967C8.76226 10.9146 8.56522 11.3475 8.55768 11.3648L8.45351 11.5806L8.68947 11.6423C8.70515 11.646 8.85015 11.6818 9.02147 11.6818C9.1018 11.6818 9.17589 11.6731 9.24241 11.6577C9.42126 11.6164 9.55934 11.5387 9.66416 11.4499C9.72819 11.6435 9.83804 11.8618 10.0282 12.0554C10.352 12.3823 10.8177 12.5476 11.4265 12.5476L11.7956 12.5426L11.5909 12.2374ZM11.4127 12.3502C9.73634 12.3502 9.77902 10.9374 9.77902 10.9374C9.77902 10.9374 9.66228 11.3555 9.1947 11.4647C9.13883 11.4795 9.07922 11.485 9.02088 11.485C8.87023 11.485 8.7403 11.4505 8.7403 11.4505C8.7403 11.4505 8.98385 10.943 8.74095 10.2332C8.54011 9.64424 8.57272 9.20765 8.57272 9.20765C8.57272 9.20765 8.34743 9.54313 7.78698 9.54622H7.78132C7.31501 9.54622 7.11164 9.19901 7.11164 9.19901C8.2288 8.7433 8.11898 7.27191 8.11898 7.27191C8.11898 7.27191 7.97401 7.37797 7.69031 7.38844C7.68027 7.38905 7.67085 7.38905 7.66082 7.38905C7.0445 7.38905 6.83612 6.74093 6.83612 6.74093H6.84866C6.96228 6.74093 7.87673 6.71506 8.5238 5.90659C8.94994 5.37502 9.29952 4.9082 9.98804 4.72378L10.0571 4.71208L10.0721 4.64426C10.0909 4.54068 10.0194 4.44384 9.85561 4.33898C8.90411 3.72661 9.55057 2.94594 9.55057 2.94594C9.55057 2.94594 9.82105 3.56999 10.4305 3.56999C10.4455 3.56999 10.4594 3.56941 10.4751 3.56941C10.5435 3.56568 10.6112 3.56321 10.6777 3.54904L10.7901 3.52745C10.7901 3.52745 10.6163 3.06432 11.0355 2.63881C11.3506 2.31753 11.7341 2.26325 11.9549 2.26325C12.0673 2.26325 12.137 2.27746 12.137 2.27746C11.9273 2.54756 11.7755 2.99527 12.0177 3.27151C12.2273 3.50897 12.7388 3.52067 12.7388 3.87463C12.7388 4.0245 12.5964 4.19964 12.3403 4.35687C11.5702 4.83356 10.8058 5.46627 10.4882 6.31298C10.0916 7.36997 10.5391 8.07111 11.1786 8.4738C11.1786 8.4738 10.9777 8.65513 10.6872 8.67792C10.6282 8.68347 10.5711 8.68595 10.5158 8.68595C9.90327 8.68595 9.58633 8.40351 9.58633 8.40351C9.58633 8.40351 9.63905 8.79387 9.95598 9.15647C10.2523 9.49134 10.6382 9.68867 11.2282 9.69667C11.2282 9.69667 11.247 9.96556 10.9859 10.198C10.8184 10.3448 10.433 10.3929 10.433 10.3929C10.433 10.3929 11.156 10.5366 11.2351 11.585C11.2784 12.1529 11.4246 12.3502 11.4246 12.3502H11.4127Z" fill="black"/>
<path d="M7.67909 5.60894C7.76003 5.60894 7.83913 5.59725 7.91384 5.57196C8.12468 5.5035 8.25838 5.33884 8.39958 5.16804C8.54393 4.99291 8.70647 4.79558 8.98829 4.64817L9.27823 4.49524L9.00901 4.30961C8.9864 4.29544 8.7843 4.16162 8.51129 4.16162C8.28661 4.16162 8.07826 4.25168 7.90689 4.42433C7.48894 4.84367 7.11425 4.8776 7.10042 4.87821L6.80859 4.89485L6.92845 5.15815C7.04896 5.41903 7.36463 5.60894 7.67909 5.60894ZM8.05065 4.56371C8.20631 4.40644 8.37008 4.3596 8.51129 4.3596C8.72843 4.3596 8.89292 4.47304 8.89292 4.47304C8.30544 4.78077 8.18494 5.27349 7.84917 5.38449C7.79394 5.40361 7.73619 5.41225 7.67909 5.41225C7.43242 5.41225 7.19393 5.25562 7.11234 5.07616C7.11234 5.07554 7.56423 5.0484 8.05065 4.56371Z" fill="black"/>
<path d="M8.99626 7.90526C8.96485 7.1603 9.15942 6.55596 9.46443 6.05833C9.29435 6.57691 9.31757 7.21212 9.89625 7.80473C9.89625 7.80473 8.7452 6.44988 10.3544 5.06116C10.9983 4.53265 11.7025 4.20642 12.0646 3.97516C10.7549 4.39514 10.1153 3.93262 10.1153 3.93262C10.5333 4.28905 11.0749 4.28291 11.4113 4.23109C11.3203 4.27488 11.2249 4.3205 11.1239 4.37419C10.018 4.96432 9.02575 5.93434 8.85568 7.27747V7.267C8.59897 8.58606 8.02783 8.92463 8.02783 8.92463C8.48226 8.70445 8.76843 8.11984 8.8381 7.90892C8.91405 9.06831 9.48954 9.87306 10.163 10.6476C10.5126 11.0491 10.6356 11.4394 10.6356 11.4394C10.6356 11.4394 10.5672 10.9973 10.264 10.6371C9.63704 9.89651 9.04018 8.97272 8.99626 7.90526Z" fill="black"/>
<path d="M14.1318 5.1875V5.45394C14.2254 5.34229 14.4061 5.36514 14.4061 5.36514V5.7493C14.4061 5.7493 14.3998 5.93802 14.3314 6.02004H14.5272H14.7225C14.6553 5.93866 14.6484 5.7493 14.6484 5.7493V5.36514C14.6484 5.36514 14.8291 5.34229 14.922 5.45394V5.1875H14.5272H14.1318Z" fill="black"/>
<path d="M13.9633 3.60759C14.0882 3.70506 14.1604 3.72107 14.1629 3.72293L14.2119 3.74513V3.49414L13.7524 3.3042C13.7524 3.30481 13.7568 3.44974 13.9633 3.60759Z" fill="black"/>
<path d="M15.056 3.60759C15.2638 3.44974 15.2675 3.3042 15.2675 3.3042L14.8081 3.49414V3.74513L14.8564 3.72293C14.8596 3.72107 14.9311 3.70506 15.056 3.60759Z" fill="black"/>
<path d="M15.8838 2.58601C15.8838 2.20554 15.2317 1.86328 14.5118 1.86328H14.5112H14.5093H14.5074C13.7876 1.86328 13.1355 2.20554 13.1355 2.58601L13.1499 2.67976L13.4373 4.30099L13.1487 4.46565L12.4018 4.89424H12.4043C12.4043 4.89424 12.2361 4.97874 12.1583 5.03114C11.874 5.22539 11.8137 5.50844 11.9788 5.62561C12.0196 5.395 12.2053 5.15323 12.553 5.15323C12.8035 5.15323 12.9942 5.2803 13.1487 5.47085C13.1882 5.51895 13.2258 5.5701 13.261 5.62561C13.3043 5.6953 13.3476 5.75635 13.3909 5.81556H11.4673C11.6085 6.09488 11.7428 6.39091 11.7428 6.7122V10.8957C11.7428 11.9083 12.5355 12.3918 13.3928 12.3918C14.0555 12.3918 14.1447 12.3622 14.5106 12.7199C14.8746 12.3616 14.9637 12.3918 15.6271 12.3918C16.4851 12.3918 17.2765 11.9083 17.2765 10.8957V6.7122C17.2765 6.39091 17.4108 6.09488 17.5526 5.81556H15.6284C15.6711 5.75699 15.7143 5.6953 15.7576 5.62561C15.7934 5.5701 15.8304 5.51895 15.8694 5.47085C16.025 5.27966 16.2152 5.15323 16.4656 5.15323C16.8133 5.15323 16.9984 5.39435 17.0399 5.62561C17.2049 5.50844 17.1453 5.22539 16.8591 5.03114C16.7825 4.97874 16.6143 4.89424 16.6143 4.89424H16.6168L15.87 4.46565L15.5825 4.30099L15.87 2.67976L15.8838 2.58601ZM13.4185 2.77472L14.429 3.11144V4.67102L13.6853 4.2856L13.4185 2.77472ZM13.6275 6.08752C13.7932 6.24968 13.9558 6.35024 14.1102 6.40572C14.0901 6.48402 14.0637 6.64559 14.1384 6.80656C14.1993 6.93604 14.3097 7.03595 14.4685 7.10256C14.4861 7.26291 14.589 7.50403 14.8746 7.6107C14.7497 7.73465 14.6279 7.85121 14.5783 7.8987L13.4204 7.8808C13.394 7.86785 13.3495 7.83887 13.3294 7.79756C13.3269 7.792 13.3231 7.78891 13.3212 7.78275L13.5102 7.81295C13.5145 7.81359 13.5183 7.81359 13.5221 7.81359C13.5585 7.81359 13.5905 7.78891 13.5968 7.75193C13.6031 7.71062 13.5748 7.67299 13.534 7.66683L13.3018 7.63107L13.5597 6.75599L13.3156 6.25093L12.924 6.65793L12.9001 7.56816L12.6371 7.52745C12.5963 7.51942 12.5574 7.54904 12.5505 7.58911C12.5443 7.6292 12.5718 7.66683 12.6133 7.67422L12.7238 7.69086C12.6842 7.71306 12.6585 7.73034 12.6553 7.73282L12.6328 7.74821L12.6265 7.77536C12.5625 8.03065 12.7074 8.27299 12.8637 8.38152L12.8581 8.41362C12.8518 8.4531 12.8606 8.49134 12.8844 8.5234C12.907 8.55608 12.9421 8.5758 12.9811 8.58258C12.9892 8.5838 12.998 8.58441 13.0056 8.58441C13.0733 8.58441 13.1323 8.53818 13.1493 8.47097C13.2077 8.47778 13.261 8.479 13.2974 8.479H13.3282L14.8476 8.74846L14.8733 8.73182C14.9945 8.64857 15.4558 8.31804 15.607 8.20887C15.6484 8.24404 15.6949 8.27608 15.7514 8.30262C15.7024 8.46419 15.6992 8.7127 15.8932 8.90881H12.0208V6.71281C12.0208 6.50005 11.9574 6.28608 11.8827 6.08874H13.6275V6.08752ZM15.5053 8.09664C15.3516 8.20764 14.9562 8.49134 14.8131 8.59L13.4323 8.34641C13.4355 8.33407 13.4386 8.32234 13.4417 8.31001C13.4599 8.23971 13.4782 8.14352 13.4794 8.03065L14.6399 8.04915L14.6618 8.02698C14.6794 8.0097 15.0472 7.66066 15.2348 7.4596C15.2794 7.51451 15.3352 7.56694 15.4081 7.61317C15.383 7.74638 15.3936 7.93629 15.5053 8.09664ZM13.1939 7.86169C13.2265 7.9289 13.2855 7.97394 13.3263 7.9992C13.325 8.0621 13.3187 8.16016 13.3018 8.24649C13.298 8.26563 13.293 8.2835 13.2873 8.30139C13.2842 8.31248 13.2811 8.32173 13.2786 8.32912C13.2177 8.32912 13.0978 8.32173 12.9999 8.28658C12.8913 8.2471 12.7294 8.05163 12.767 7.8364C12.8141 7.80803 12.9227 7.74821 13.0244 7.74821C13.1028 7.74763 13.1562 7.78397 13.1939 7.86169ZM13.0501 7.59097L13.0733 6.71714L13.2729 6.50934L13.3985 6.7671L13.1512 7.60575L13.0501 7.59097ZM15.4928 12.1211C15.4175 12.1211 15.3478 12.1223 15.285 12.1248L15.4495 11.6222C15.4752 11.5525 15.3453 11.4631 15.292 11.3848C15.3729 11.4347 15.5825 11.5439 15.6836 11.5876C15.6729 11.6037 15.4928 12.1211 15.4928 12.1211ZM16.0087 11.55L15.9014 12.1001C15.8329 12.1093 15.7601 12.1143 15.6855 12.1174L15.7984 11.5883C15.8323 11.431 15.4024 11.3823 15.1903 11.0733C15.0867 11.1881 14.8915 11.222 14.6957 11.222C14.5169 11.222 14.338 11.1936 14.2294 11.1726C14.2018 11.1683 14.1754 11.1652 14.1497 11.1652C14.0869 11.1652 14.0298 11.1843 13.9903 11.2497L13.9589 11.3015L13.3733 11.1659L13.2277 11.4026C13.207 11.4409 13.2058 11.4736 13.239 11.5093L13.2786 11.5519C13.2516 11.6358 13.1298 11.7622 13.1298 11.7622L13.0426 11.6555C12.9736 11.5796 12.9848 11.4415 13.057 11.3132L13.2892 10.9278L13.7851 10.9981L13.7079 10.8254C13.6043 10.5973 13.7618 10.3068 13.7788 10.1397C13.7731 10.1903 13.726 10.2014 13.6708 10.2014C13.6206 10.2014 13.5648 10.1921 13.5277 10.1921C13.5133 10.1921 13.5007 10.1933 13.4938 10.1983L13.3595 10.2784L13.2535 10.1866C13.2409 10.1687 13.2365 10.1274 13.2679 10.0965L13.5133 9.82643L13.2233 9.49403L13.6294 9.69448L13.7531 9.54707C13.7869 9.57975 13.7725 9.66544 13.7725 9.66544C13.8993 9.66855 14.2545 9.86158 14.2733 10.3117C14.2746 10.3253 14.2746 10.3407 14.2746 10.3555C14.2746 10.3555 14.2778 10.3611 14.284 10.3703C14.3091 10.4043 14.3781 10.4912 14.466 10.4992L15.0271 10.5535H15.0296C15.0911 10.5535 15.2135 10.4826 15.3704 10.4826C15.4558 10.4826 15.5512 10.5041 15.6528 10.5671C15.6528 10.5671 15.7037 10.5276 15.7865 10.5233C15.7928 10.5227 15.7997 10.5227 15.806 10.5227C16.0577 10.5227 16.1618 10.7459 16.2968 10.9315C16.3985 11.0727 16.534 11.2824 16.534 11.2824C16.4838 11.341 16.4373 11.3731 16.3595 11.3731C16.3382 11.3731 16.3137 11.3712 16.2873 11.3663C16.0175 11.3175 15.9786 10.7724 15.8248 10.7292C15.8167 10.7268 15.8079 10.7262 15.8003 10.7262C15.7507 10.7262 15.7288 10.7693 15.7288 10.7693C15.7991 10.9549 15.7583 11.0302 15.8336 11.1733C15.8901 11.2793 15.9905 11.3669 16.0319 11.4082C16.0319 11.4094 16.0206 11.4896 16.0087 11.55ZM12.9955 11.0295L13.0212 11.0931C13.0043 11.1486 12.8097 11.2275 12.8097 11.2275L12.7677 11.1375C12.7231 11.0413 12.7325 10.8791 12.8681 10.7798L13.1832 10.5911L13.5171 10.6608C13.5108 10.765 13.5742 10.8427 13.5742 10.8427L13.2239 10.7767L13.0143 10.9192C12.9792 10.9432 12.9767 10.9883 12.9955 11.0295ZM16.0614 12.0699L16.1574 11.5778C16.1624 11.5488 16.1687 11.5149 16.1731 11.4865C16.2001 11.4976 16.229 11.5068 16.2604 11.5124C16.2961 11.5192 16.3294 11.5223 16.3595 11.5223C16.5064 11.5223 16.5917 11.4464 16.6488 11.3817L16.7229 11.2972L16.6627 11.2047C16.657 11.1954 16.5239 10.9882 16.421 10.8464C16.401 10.8187 16.3815 10.7909 16.362 10.7607C16.2453 10.5893 16.099 10.374 15.806 10.374L15.7796 10.3746C15.7313 10.3777 15.6899 10.387 15.6566 10.3993C15.5643 10.3568 15.4696 10.3352 15.371 10.3352C15.2499 10.3352 15.1476 10.3679 15.0798 10.3907C15.0604 10.3962 15.0428 10.4024 15.029 10.4049L14.4811 10.3518C14.4742 10.3506 14.4516 10.3377 14.4246 10.3056V10.3031L14.5432 10.2562C14.51 9.86836 14.1308 9.62968 13.9193 9.54891C13.91 9.51006 13.8911 9.47122 13.8579 9.43977L13.7398 9.33001L13.6363 9.4521L13.5855 9.51437L12.8185 9.20481L13.3175 9.82023L13.1204 10.1132C13.0482 10.1884 13.1279 10.2636 13.1279 10.2636L13.3313 10.4011L13.5422 10.3241C13.5497 10.3241 13.556 10.3259 13.5629 10.3265C13.5528 10.358 13.5397 10.4813 13.5309 10.5159L13.165 10.4449L12.7802 10.6583C12.5825 10.8008 12.5555 11.037 12.629 11.1985L12.6717 11.2904L12.7325 11.4199L12.8668 11.365C12.8687 11.3644 12.8706 11.3638 12.8719 11.3626C12.8236 11.5143 12.843 11.6586 12.9296 11.7536L13.0112 11.8547L13.1198 11.9897L13.239 11.8639C13.2741 11.8294 13.3878 11.7042 13.4229 11.5969L13.4486 11.5149L13.3903 11.452L13.3809 11.4409L13.4461 11.3348L13.9237 11.4452L14.0311 11.4693L14.0882 11.3768L14.1196 11.3262C14.1252 11.3157 14.1271 11.3138 14.1491 11.3138C14.166 11.3138 14.1829 11.3157 14.2012 11.3194C14.3813 11.3527 14.5476 11.3693 14.6951 11.3693C14.8382 11.3693 14.9235 11.3638 15.0259 11.3305C15.0259 11.3305 15.2825 11.6167 15.2913 11.6277L15.1344 12.1038L15.1275 12.1328C14.83 12.1562 14.685 12.2203 14.51 12.3924C14.2557 12.1445 14.0756 12.1186 13.3922 12.1186C12.5744 12.1186 12.0202 11.6475 12.0202 10.8951V9.05558H16.9984L16.9997 10.8951C17.0003 11.5057 16.6357 11.9311 16.0614 12.0699ZM17.1378 6.08752C17.0618 6.28486 16.9984 6.49883 16.9984 6.71162L16.9991 8.0843C16.7072 8.03621 16.6727 7.72726 16.6714 7.7137L16.6658 7.65079L16.6031 7.64524C16.4763 7.63351 16.3922 7.5805 16.3212 7.51264C16.1782 7.37205 16.1775 7.14387 16.1782 7.14204C16.1763 7.15374 16.0206 7.36771 16.2014 7.60145C16.2773 7.70011 16.3871 7.76055 16.5296 7.78461C16.5629 7.95605 16.6928 8.19778 16.9991 8.23476V8.90695H16.138C15.7407 8.68986 15.9089 8.30753 15.917 8.29153L15.951 8.21876L15.875 8.19039C15.4451 8.03376 15.5631 7.61195 15.5693 7.59406L15.5869 7.5324L15.5286 7.50525C15.1733 7.34368 15.2217 6.9077 15.226 6.88983C15.1169 6.97677 15.0773 7.15438 15.1526 7.32829C15.1118 7.37391 15.0572 7.4294 14.9976 7.48986C14.6298 7.39794 14.6185 7.06558 14.6185 7.05015L14.6179 6.99894L14.5696 6.98047C14.4258 6.92807 14.3273 6.84971 14.279 6.74426C14.2244 6.6277 14.2438 6.50561 14.2589 6.44701C14.3009 6.45629 14.343 6.46307 14.3832 6.46613C14.4246 6.47049 14.4673 6.47294 14.51 6.47294H14.5125H14.5156C14.5583 6.47294 14.6003 6.47049 14.6418 6.46613C14.8708 6.44396 15.1275 6.34715 15.3949 6.08691H17.1378V6.08752ZM15.7959 4.69996L16.1361 4.89424H16.1411L16.2265 4.94298C16.0344 4.99538 15.8875 5.08974 15.7645 5.21366C15.7601 5.21739 15.7558 5.22234 15.7514 5.22664C15.7231 5.25623 15.6949 5.2883 15.6685 5.321C15.6635 5.32714 15.6585 5.33392 15.6528 5.34073C15.6265 5.37402 15.602 5.40794 15.5782 5.4437C15.5744 5.44987 15.57 5.45604 15.5656 5.46157C15.5374 5.50288 15.5104 5.54732 15.4834 5.59294C15.2411 6.00303 14.8545 6.24784 14.5106 6.24849C14.1673 6.24784 13.7807 6.00303 13.5384 5.59294C13.512 5.54854 13.4857 5.50536 13.4574 5.46346C13.4518 5.45543 13.4468 5.4474 13.4417 5.44062C13.4179 5.40669 13.394 5.37341 13.3695 5.34195C13.3633 5.33334 13.3577 5.32653 13.3514 5.31914C13.325 5.28769 13.298 5.25623 13.271 5.22725C13.2654 5.22292 13.2616 5.21739 13.256 5.21244C13.1323 5.08849 12.9861 4.99474 12.7934 4.94298L12.88 4.89424H12.8838L13.2239 4.69996L13.5735 4.50327L14.5074 5.00277L14.5093 5.00094L14.5118 5.00277L15.4457 4.50327L15.7959 4.69996ZM15.3352 4.28618L14.5909 4.67163V3.11144L15.6007 2.77472L15.3352 4.28618ZM14.51 2.94L13.4028 2.51017C13.497 2.29124 13.9313 2.10501 14.51 2.1044C15.0892 2.10501 15.5235 2.29124 15.617 2.51017L14.51 2.94Z" fill="black"/>
<path d="M1.99148 20.6563V18.7259H3.14389V18.0234H0V18.7259H1.15237V20.6563H1.99148ZM4.29083 19.5556V18.0234H3.47969V20.6563H4.19577L5.59425 19.1241V20.6563H6.40542V18.0234H5.68934L4.29083 19.5556ZM9.13429 19.6773V20.6563H9.94542V18.0234H9.13429V18.9858H7.83083V18.0234H7.01973V20.6563H7.83083V19.6773H9.13429ZM12.2044 20.6563C12.389 20.6563 12.5568 20.6397 12.7135 20.5954C13.133 20.4793 13.4071 20.1419 13.4071 19.6828C13.4071 19.2458 13.1721 18.9416 12.7974 18.8033C12.6184 18.7369 12.4058 18.7314 12.2044 18.7314H11.3709V18.0234H10.5597V20.6563H12.2044ZM12.0646 19.3509C12.1764 19.3509 12.2827 19.3509 12.3778 19.3841C12.5121 19.4283 12.5904 19.539 12.5904 19.6717C12.5904 19.81 12.5121 19.9262 12.3834 19.9815C12.2939 20.0202 12.2044 20.0202 12.0646 20.0202H11.3709V19.3509H12.0646ZM14.8615 19.6606L15.8293 20.6563H16.9089L15.5608 19.2845L16.8586 18.0234H15.8405L14.8615 19.0135H14.6377V18.0234H13.8266V20.6563H14.6377V19.6606H14.8615ZM18.578 17.9515C17.4872 17.9515 16.8326 18.5599 16.8326 19.3453C16.8326 20.1308 17.4872 20.7393 18.578 20.7393C19.6632 20.7393 20.3178 20.1308 20.3178 19.3453C20.3178 18.5599 19.6632 17.9515 18.578 17.9515ZM18.578 20.0976C18.0354 20.0976 17.6885 19.7768 17.6885 19.3453C17.6885 18.9139 18.0354 18.5986 18.578 18.5986C19.115 18.5986 19.4675 18.9139 19.4675 19.3453C19.4675 19.7768 19.115 20.0976 18.578 20.0976ZM23.0191 17.874H22.208V18.1395C21.1899 18.1617 20.5801 18.5876 20.5801 19.3398C20.5801 20.0921 21.1899 20.4848 22.208 20.507V20.7725H23.0191V20.507C24.0429 20.4848 24.6526 20.0921 24.6526 19.3398C24.6526 18.5876 24.0429 18.1617 23.0191 18.1395V17.874ZM22.208 19.9427C21.6486 19.9206 21.4024 19.6938 21.4024 19.3398C21.4024 18.9858 21.6486 18.7314 22.208 18.7093V19.9427ZM23.0191 18.7093C23.5842 18.7314 23.8247 18.9858 23.8247 19.3398C23.8247 19.6938 23.5842 19.9206 23.0191 19.9427V18.7093ZM27.3513 17.874H26.5401V18.1395C25.522 18.1617 24.9123 18.5876 24.9123 19.3398C24.9123 20.0921 25.522 20.4848 26.5401 20.507V20.7725H27.3513V20.507C28.3749 20.4848 28.9848 20.0921 28.9848 19.3398C28.9848 18.5876 28.3749 18.1617 27.3513 18.1395V17.874ZM26.5401 19.9427C25.9807 19.9206 25.7346 19.6938 25.7346 19.3398C25.7346 18.9858 25.9807 18.7314 26.5401 18.7093V19.9427ZM27.3513 18.7093C27.9163 18.7314 28.1568 18.9858 28.1568 19.3398C28.1568 19.6938 27.9163 19.9206 27.3513 19.9427V18.7093Z" fill="white"/>
</g>
<defs>
<clipPath id="clip0_247_3772">
<rect width="29" height="20.7654" fill="white" transform="translate(0 0.00683594)"/>
</clipPath>
</defs>
</svg>
