<svg width="37" height="7" viewBox="0 0 37 7" fill="none" xmlns="http://www.w3.org/2000/svg">
<path fill-rule="evenodd" clip-rule="evenodd" d="M1.11763 0.537793C1.45191 0.373342 1.82054 0.290874 2.19302 0.297215C2.65734 0.297215 3.12406 0.297215 3.59078 0.297215V5.37582H2.70545C2.70545 3.90829 2.70545 2.43996 2.70545 0.970832C2.3518 0.970832 1.98372 0.941961 1.64931 1.11277C1.53113 1.17875 1.43027 1.2718 1.35499 1.3843C1.27972 1.49679 1.23218 1.62551 1.21627 1.75993C1.19018 1.92332 1.19808 2.09034 1.23948 2.25053C1.28087 2.41073 1.35487 2.56067 1.45685 2.69097C1.75211 2.98378 2.08358 3.23764 2.44322 3.44639C2.01259 4.08873 1.58676 4.73589 1.15372 5.37101C0.833751 5.37101 0.516187 5.37101 0.191406 5.37101L1.34618 3.64606C0.91138 3.37795 0.574076 2.9774 0.38387 2.50332C0.305168 2.25687 0.280972 1.99627 0.312958 1.73956C0.344944 1.48284 0.432348 1.23614 0.569116 1.01654C0.705019 0.818314 0.884398 0.653744 1.09358 0.535385L1.11763 0.537793ZM22.7312 0.345334C22.7915 0.324975 22.8553 0.316796 22.9189 0.321274C23.8427 0.321274 24.7713 0.321274 25.6951 0.321274C25.6951 0.542606 25.6951 0.76153 25.6951 0.980457C24.9999 0.980457 24.307 0.980457 23.6141 0.980457C23.6141 1.43274 23.6141 1.88504 23.6141 2.33732C23.9076 2.35176 24.2011 2.33732 24.4971 2.33732C24.9104 2.35301 25.3078 2.50148 25.6302 2.76074C25.7988 2.92976 25.9157 3.14343 25.967 3.37662C25.9966 3.55785 26.0071 3.7417 25.9983 3.92513C25.9831 4.01918 25.9726 4.11393 25.967 4.20902C25.9127 4.47273 25.7792 4.71361 25.5845 4.89948C25.2224 5.18171 24.778 5.33799 24.319 5.34455H23.0656C22.9548 5.35301 22.8433 5.34815 22.7336 5.33011C22.7336 5.1569 22.7336 4.98128 22.7336 4.80806C22.7213 4.56764 22.7213 4.32675 22.7336 4.08633C22.7192 3.73027 22.7336 3.36459 22.7336 3.01575C22.7216 2.50332 22.7336 1.99089 22.7336 1.47846C22.7529 1.15608 22.7192 0.833706 22.7336 0.516142C22.7336 0.44878 22.7336 0.383822 22.7336 0.318866L22.7312 0.345334ZM23.6165 3.01816C23.5997 3.57149 23.6165 4.12722 23.6165 4.68055C23.9232 4.71272 24.2329 4.69894 24.5355 4.63965C24.6524 4.61793 24.762 4.5677 24.8548 4.49342C24.9475 4.41913 25.0205 4.32309 25.0672 4.21383C25.1217 4.06687 25.1426 3.90958 25.1285 3.75348C25.1143 3.59739 25.0654 3.44643 24.9854 3.31166C24.8777 3.19988 24.7458 3.11423 24.5998 3.06127C24.4539 3.00831 24.2978 2.98945 24.1434 3.00613C23.9701 3.00046 23.7966 3.00448 23.6238 3.01816H23.6165ZM18.7929 1.87782C19.1972 1.64195 19.6719 1.55672 20.133 1.63724C20.3231 1.65628 20.5086 1.70753 20.6815 1.7888C20.6815 2.02938 20.6815 2.26996 20.6815 2.52737C20.3944 2.37087 20.0697 2.29677 19.7432 2.31326C19.611 2.32404 19.4837 2.36807 19.3731 2.44125C19.2624 2.51444 19.1721 2.61441 19.1105 2.73187C18.9901 2.99628 18.9372 3.28642 18.9565 3.5763C18.9381 3.92432 19.0486 4.26692 19.2669 4.53861C19.3551 4.61604 19.4583 4.67455 19.57 4.71055C19.6817 4.74655 19.7996 4.75927 19.9164 4.74792C20.1896 4.74488 20.4557 4.66118 20.6815 4.50734C20.6815 4.74792 20.6815 4.98849 20.6815 5.22907C20.274 5.45215 19.7987 5.51725 19.3463 5.41192C19.1376 5.38408 18.9379 5.30947 18.7621 5.19366C18.5863 5.07786 18.439 4.92384 18.331 4.74311C18.0909 4.27481 18.0002 3.74411 18.0712 3.22265C18.0849 2.96115 18.1568 2.706 18.2816 2.47583C18.4065 2.24567 18.5812 2.04629 18.7929 1.89225V1.87782ZM11.7368 2.18576C11.8532 2.02561 12.003 1.89257 12.1757 1.79581C12.3485 1.69904 12.5402 1.64084 12.7376 1.62521C12.9525 1.59764 13.1709 1.61598 13.3782 1.67901C13.5856 1.74205 13.7772 1.84835 13.9405 1.99089C14.1505 2.21787 14.282 2.50628 14.3158 2.81366C14.3578 3.15356 14.3723 3.4963 14.3591 3.83853H12.2588C12.2527 3.99093 12.2828 4.14262 12.3468 4.28107C12.4108 4.41952 12.5068 4.54078 12.6269 4.63484C12.8681 4.74627 13.1383 4.77909 13.3992 4.72867C13.7287 4.69425 14.0453 4.58212 14.323 4.40148C14.323 4.64206 14.323 4.88264 14.323 5.11119C13.8949 5.37001 13.3938 5.48154 12.8964 5.42875C12.6535 5.42235 12.4154 5.35971 12.2009 5.24575C11.9863 5.13179 11.8011 4.96961 11.6598 4.77198C11.4014 4.30809 11.3009 3.77273 11.3735 3.24671C11.3908 2.86786 11.5114 2.50096 11.7223 2.18576H11.7368ZM12.5884 2.39025C12.3334 2.56828 12.2853 2.90749 12.2709 3.19618H13.4737C13.4899 2.9639 13.4442 2.73148 13.3414 2.52257C13.2535 2.4089 13.1262 2.33228 12.9846 2.30779C12.843 2.2833 12.6974 2.31272 12.5764 2.39025H12.5884ZM4.31973 1.68776C4.61083 1.68776 4.90193 1.68776 5.19303 1.68776C5.19303 2.16892 5.19303 2.65007 5.19303 3.14325H6.35743V1.69498H7.22833V5.37582H6.35743V3.83853H5.19544V5.37582H4.32455C4.32455 4.14887 4.32455 2.92433 4.32455 1.69738L4.31973 1.68776ZM8.23154 1.68776H10.7696C10.7696 2.68375 10.7696 3.68215 10.7696 4.68055H11.1594V6.20823H10.3534C10.3534 5.92916 10.3534 5.65008 10.3534 5.37101C9.70147 5.37101 9.0471 5.37101 8.39513 5.37101C8.39513 5.65008 8.39513 5.92916 8.39513 6.20823H7.60122V4.68055H7.87067C7.96691 4.47369 8.03643 4.25541 8.07757 4.03099C8.20812 3.2571 8.26211 2.47223 8.23875 1.68776H8.23154ZM8.97733 2.37581C8.9653 3.15047 8.94606 3.94679 8.66939 4.68055H9.90115C9.90115 3.9107 9.90115 3.14325 9.90115 2.37581H8.97733ZM14.9581 1.68776V5.36861C15.2468 5.36861 15.5355 5.36861 15.8266 5.36861C15.8266 4.77678 15.8266 4.18496 15.8266 3.59554C16.262 4.18255 16.6831 4.77919 17.1161 5.3662H18.1025L16.7047 3.4103C17.1113 2.83532 17.5251 2.26274 17.9317 1.68535H17.0584C16.6446 2.25793 16.2404 2.83532 15.8266 3.40789C15.8266 2.83532 15.8266 2.26033 15.8266 1.68776H14.9581ZM26.7272 1.9957C27.1153 1.78123 27.5517 1.66943 27.9951 1.67092C28.3382 1.65121 28.6793 1.73502 28.9742 1.91149C29.1504 2.03705 29.2745 2.22276 29.3231 2.43355C29.3512 2.5511 29.3673 2.6712 29.3712 2.79201C29.3712 3.35256 29.3712 3.9107 29.3712 4.47606C29.3699 4.77413 29.3843 5.07206 29.4145 5.36861C29.1378 5.36861 28.8611 5.36861 28.5821 5.36861C28.5566 5.28105 28.5373 5.19182 28.5243 5.10157H28.4546C28.3149 5.23531 28.1435 5.33134 27.9566 5.38064C27.7684 5.42974 27.5719 5.43753 27.3804 5.40348C27.189 5.36943 27.0072 5.29433 26.8475 5.18336C26.7379 5.09535 26.6472 4.98601 26.581 4.86196C26.5149 4.7379 26.4746 4.60171 26.4626 4.46163C26.4303 4.29318 26.4398 4.1194 26.4901 3.95543C26.5404 3.79147 26.6301 3.64232 26.7513 3.52096C27.071 3.25701 27.4699 3.10791 27.8844 3.09754C28.0913 3.06146 28.3006 3.09755 28.5099 3.06628C28.5317 2.9643 28.5312 2.85881 28.5084 2.75706C28.4855 2.65531 28.4409 2.55971 28.3776 2.47686C28.2619 2.40668 28.1331 2.36088 27.999 2.34226C27.865 2.32365 27.7286 2.33261 27.5981 2.36859C27.2882 2.4165 26.9898 2.52087 26.7176 2.67653C26.7176 2.45039 26.7176 2.22665 26.7176 2.00051L26.7272 1.9957ZM27.8459 3.73027C27.7341 3.73744 27.6269 3.77697 27.5372 3.84404C27.4474 3.9111 27.3792 4.0028 27.3407 4.10798C27.3125 4.21921 27.3186 4.33635 27.3581 4.44409C27.3976 4.55182 27.4686 4.64514 27.562 4.71183C27.7228 4.79337 27.907 4.81612 28.0827 4.77614C28.2585 4.73616 28.4147 4.63596 28.5243 4.4929C28.5243 4.22827 28.5243 3.96123 28.5243 3.69659C28.3002 3.67281 28.0737 3.68417 27.8531 3.73027H27.8459ZM30.0881 1.72625C30.372 1.69979 30.6583 1.72625 30.9446 1.71422C30.9446 2.19538 30.9446 2.67653 30.9446 3.15769C31.3054 3.17212 31.6663 3.15769 32.0272 3.15769L32.1186 3.13604C32.1186 2.65488 32.1186 2.19297 32.1186 1.72144C32.4025 1.70941 32.6863 1.72144 32.9702 1.72144C32.9702 2.93716 32.9702 4.15288 32.9702 5.36861C32.6863 5.36861 32.4025 5.36861 32.1186 5.36861C32.1186 4.86099 32.1186 4.35337 32.1186 3.84575C31.724 3.84575 31.3271 3.82891 30.9349 3.84575C30.9349 4.35417 30.9349 4.86179 30.9349 5.36861C30.651 5.36861 30.3648 5.36861 30.0833 5.36861C30.0833 4.16571 30.0833 2.9508 30.0833 1.74309L30.0881 1.72625ZM33.7329 1.72625C34.0143 1.72625 34.2982 1.72625 34.5821 1.72625C34.5821 2.2868 34.5821 2.84494 34.5821 3.4103H34.6543C35.0368 2.85216 35.4386 2.31086 35.8187 1.75031C36.1074 1.73828 36.3937 1.75031 36.6823 1.75031C36.2974 2.29402 35.9125 2.84013 35.5252 3.38143C35.5011 3.42233 35.4434 3.47766 35.4939 3.52337L36.8532 5.39026C36.5332 5.39026 36.2132 5.39026 35.8908 5.39026C35.465 4.83693 35.0584 4.26676 34.6422 3.70621L34.5797 3.68696C34.5797 4.25794 34.5797 4.82811 34.5797 5.39748C34.2958 5.39748 34.0119 5.39748 33.7304 5.39748L33.7329 1.72625Z" fill="white"/>
</svg>
