<svg width="31" height="14" viewBox="0 0 31 14" fill="none" xmlns="http://www.w3.org/2000/svg">
<path d="M20.7808 8.67139V13.3981H21.8078V11.4668H23.998V13.3981H25.025V8.67139H23.998V10.6093H21.8078V8.67139H20.7808Z" fill="white"/>
<path d="M27.3384 11.4918H27.9772L29.5541 13.3981H30.8821L28.7802 10.9537L30.6168 8.67139H29.4359L27.9054 10.6974H27.3384V8.67139H26.3105V13.3981H27.3384V11.4918Z" fill="white"/>
<path d="M19.0147 13.3981H20.0971L18.0897 8.67139H17.0423L14.9883 13.3981H16.029L16.4438 12.4459H18.627L19.0147 13.3981ZM16.7499 11.6558L17.5462 9.7584L18.2942 11.6558H16.7499Z" fill="white"/>
<path d="M12.8398 10.5139H11.5899V9.4584H14.277L14.2793 8.67139H10.5625V13.3981H12.7076C13.9108 13.3981 14.6007 12.857 14.6007 11.9133C14.6007 11.011 13.9756 10.5139 12.8398 10.5139ZM12.6613 12.6111H11.5899V11.3009H12.6613C13.3131 11.3009 13.6169 11.5202 13.6169 11.9562C13.6169 12.4015 13.2955 12.6111 12.6613 12.6111Z" fill="white"/>
<path d="M23.0462 3.25039L24.1218 2.46338H20.522V7.19051H24.1218V6.4035H21.549V5.19337H23.7435V4.40597H21.549V3.25039H23.0462Z" fill="white"/>
<path d="M17.8047 4.30623H16.5548V3.25039H18.5503L19.626 2.46338H15.5273V7.19051H17.6724C18.8756 7.19051 19.5656 6.64934 19.5656 5.70571C19.5656 4.80298 18.9404 4.30623 17.8047 4.30623ZM17.6245 6.4035H16.5532V5.09324H17.6245C18.2764 5.09324 18.5801 5.3122 18.5801 5.74818C18.5801 6.1935 18.2587 6.4035 17.6245 6.4035Z" fill="white"/>
<path d="M27.0389 2.46338H25.0767V7.19051H26.1041V5.85142H27.0369C28.2876 5.85142 29.0646 5.19844 29.0646 4.15506C29.0646 3.11169 28.2876 2.46338 27.0369 2.46338M27.0149 5.06441H26.1041V3.25039H27.0149C27.673 3.25039 28.0353 3.5726 28.0353 4.1574C28.0353 4.7422 27.6727 5.06441 27.0149 5.06441Z" fill="white"/>
<path d="M13.7634 6.16705C13.491 6.31372 13.1856 6.38971 12.8757 6.38795C11.9496 6.38795 11.2773 5.73146 11.2773 4.82718C11.2773 3.9229 11.9496 3.26874 12.8757 3.26874C13.2104 3.26396 13.5379 3.36568 13.8101 3.559L14.5471 3.01978L14.4985 2.97731C14.0668 2.60212 13.4934 2.40381 12.8361 2.40381C12.123 2.40381 11.4759 2.64225 11.014 3.07588C10.5521 3.50952 10.2935 4.12549 10.2935 4.80302C10.2935 5.48055 10.5485 6.10666 11.0112 6.55627C11.4739 7.00588 12.1214 7.25523 12.8294 7.25523C13.5699 7.25523 14.2167 6.99886 14.655 6.5325L13.9902 6.04588L13.7634 6.16705Z" fill="white"/>
<path d="M7.85 4.80424C7.85009 4.57012 7.82908 4.33647 7.78721 4.10607L6.94228 4.72399C6.94228 4.75087 6.94228 4.77736 6.94228 4.80424C6.94298 5.47454 6.71755 6.12575 6.30195 6.65401C5.88635 7.18226 5.30452 7.55712 4.64929 7.71878C3.99406 7.88044 3.30316 7.8196 2.68683 7.54595C2.07049 7.2723 1.56422 6.80161 1.24878 6.20897C0.933337 5.61634 0.826895 4.93589 0.946435 4.27619C1.06598 3.61649 1.40461 3.01553 1.90832 2.56919C2.41203 2.12286 3.05179 1.85685 3.72555 1.81361C4.39931 1.77036 5.06824 1.95238 5.62564 2.33062L6.38894 1.77231C5.69631 1.21741 4.83427 0.912722 3.94426 0.908253C3.05425 0.903784 2.18914 1.19979 1.4909 1.74771C0.792657 2.29563 0.302752 3.0629 0.101573 3.92363C-0.0996049 4.78436 -0.000105167 5.68742 0.383746 6.48462C0.767596 7.28182 1.413 7.9258 2.21404 8.3109C3.01509 8.696 3.92419 8.79933 4.79218 8.60395C5.66017 8.40857 6.43548 7.92607 6.9909 7.23564C7.54631 6.54521 7.84883 5.68784 7.84882 4.80424H7.85Z" fill="white"/>
<path d="M7.03114 2.42188C7.21787 2.66103 7.37591 2.92096 7.50207 3.19642L3.92615 5.81303L2.43213 4.88304V3.76447L3.92615 4.69447L7.03114 2.42188Z" fill="white"/>
</svg>
