<svg width="18" height="18" viewBox="0 0 18 18" fill="none" xmlns="http://www.w3.org/2000/svg">
<path d="M8.14172 12.2114V13.6388C8.14172 14.8482 7.04171 15.8255 5.68734 15.8255C4.33296 15.8255 3.22607 14.8482 3.22607 13.6388V12.2114C3.22607 13.4208 4.32609 14.2786 5.68734 14.2786C7.04171 14.2786 8.14172 13.4138 8.14172 12.2114Z" stroke="white" stroke-width="0.818182" stroke-linecap="round" stroke-linejoin="round"/>
<path d="M8.14025 10.2773C8.14025 10.6289 8.044 10.9523 7.879 11.2336C7.47338 11.9156 6.64149 12.3445 5.67899 12.3445C4.71649 12.3445 3.88461 11.9086 3.47898 11.2336C3.31398 10.9523 3.21777 10.6289 3.21777 10.2773C3.21777 9.67264 3.49276 9.13123 3.93276 8.73748C4.37963 8.3367 4.99149 8.09766 5.67211 8.09766C6.35274 8.09766 6.96463 8.34373 7.41151 8.73748C7.86526 9.1242 8.14025 9.67264 8.14025 10.2773Z" stroke="white" stroke-width="0.818182" stroke-linecap="round" stroke-linejoin="round"/>
<path d="M8.14172 10.2775V12.2111C8.14172 13.4205 7.04171 14.2783 5.68734 14.2783C4.33296 14.2783 3.22607 13.4135 3.22607 12.2111V10.2775C3.22607 9.06815 4.32609 8.09082 5.68734 8.09082C6.36796 8.09082 6.97986 8.3369 7.42673 8.73065C7.86673 9.1244 8.14172 9.67284 8.14172 10.2775Z" stroke="white" stroke-width="0.818182" stroke-linecap="round" stroke-linejoin="round"/>
<path d="M15.8754 8.0697V9.51818C15.8754 9.90489 15.5729 10.2213 15.1879 10.2353H13.8404C13.0979 10.2353 12.4173 9.67987 12.3554 8.92049C12.3141 8.47753 12.4791 8.06268 12.7679 7.7744C13.0223 7.50721 13.3729 7.35254 13.7579 7.35254H15.1879C15.5729 7.3666 15.8754 7.68298 15.8754 8.0697Z" stroke="white" stroke-width="0.818182" stroke-linecap="round" stroke-linejoin="round"/>
<path d="M2.125 7.73926V6.33301C2.125 4.42051 3.2525 3.08457 5.00563 2.85957C5.18438 2.83144 5.37 2.81738 5.5625 2.81738H11.75C11.9287 2.81738 12.1006 2.82441 12.2656 2.85253C14.0394 3.06347 15.1875 4.40645 15.1875 6.33301V7.35255H13.7575C13.3725 7.35255 13.0219 7.50722 12.7675 7.77441C12.4787 8.06269 12.3138 8.47753 12.355 8.9205C12.4169 9.67988 13.0975 10.2353 13.84 10.2353H15.1875V11.2549C15.1875 13.3643 13.8125 14.7705 11.75 14.7705H10.0312" stroke="white" stroke-width="0.818182" stroke-linecap="round" stroke-linejoin="round"/>
</svg>
