<svg width="25" height="24" viewBox="0 0 25 24" fill="none" xmlns="http://www.w3.org/2000/svg">
<path d="M14.333 4.1L14.333 19.9C14.333 21.4 14.973 22 16.563 22H20.603C22.193 22 22.833 21.4 22.833 19.9V4.1C22.833 2.6 22.193 2 20.603 2H16.563C14.973 2 14.333 2.6 14.333 4.1Z" stroke="#2A2A2A" stroke-width="1.5" stroke-linecap="round" stroke-linejoin="round"/>
<path d="M2.83301 11.1L2.83301 19.9C2.83301 21.4 3.47301 22 5.06301 22H9.10301C10.693 22 11.333 21.4 11.333 19.9V11.1C11.333 9.6 10.693 9 9.10301 9H5.06301C3.47301 9 2.83301 9.6 2.83301 11.1Z" stroke="#2A2A2A" stroke-width="1.5" stroke-linecap="round" stroke-linejoin="round"/>
</svg>
