<svg width="92" height="16" viewBox="0 0 92 16" fill="none" xmlns="http://www.w3.org/2000/svg">
<path d="M16.9908 14.9997L15.3497 12.4621C15.0445 11.9918 14.774 11.674 14.5388 11.5082C14.3032 11.3429 13.9695 11.26 13.537 11.26H12.8696V14.9995H10.4463V5.45996H12.8696V8.93252H13.4611C13.8932 8.93252 14.2239 8.85006 14.453 8.68429C14.682 8.5192 14.9488 8.20107 15.254 7.73008L16.7424 5.45996H19.4327L17.2962 8.68429C16.8123 9.43485 16.3613 9.8993 15.9409 10.0771C16.373 10.2173 16.8569 10.6941 17.3912 11.508L19.6806 14.9994H16.991L16.9908 14.9997Z" fill="#B6B6B6"/>
<path d="M24.8573 5.34489C26.3834 5.34489 27.6362 5.92986 28.6158 7.09995L27.166 8.6646C26.4661 8.01594 25.6969 7.69162 24.8573 7.69162C24.1829 7.69162 23.6043 7.92761 23.1207 8.39776C22.6372 8.86808 22.396 9.47885 22.396 10.2294C22.396 10.9801 22.6372 11.5906 23.1207 12.0607C23.6043 12.5317 24.1829 12.767 24.8573 12.767C25.6967 12.767 26.4659 12.4425 27.166 11.7941L28.6158 13.3582C27.6362 14.5288 26.3836 15.1138 24.8573 15.1138C23.4958 15.1138 22.3417 14.6369 21.3945 13.6827C20.4467 12.7285 19.9727 11.5777 19.9727 10.2294C19.9727 8.88082 20.4467 7.72966 21.3945 6.77612C22.3417 5.82158 23.496 5.34473 24.8573 5.34473V5.34489Z" fill="#B6B6B6"/>
<path d="M39.2606 14.9995H36.8376V7.80668H32.6785V14.9995H30.2554V5.45996H39.2606V14.9995Z" fill="#B6B6B6"/>
<path d="M61.35 14.9995H58.927V11.3934H54.7674V14.9995H52.3442V5.45996H54.7674V9.04667H58.927V5.45996H61.35V14.9995Z" fill="#B6B6B6"/>
<path d="M67.692 5.34489C69.2184 5.34489 70.4711 5.92986 71.4508 7.09995L70.001 8.6646C69.301 8.01594 68.5319 7.69162 67.692 7.69162C67.0175 7.69162 66.4392 7.92761 65.9557 8.39776C65.4725 8.86808 65.2304 9.47885 65.2304 10.2294C65.2304 10.9801 65.4725 11.5906 65.9557 12.0607C66.4392 12.5317 67.0175 12.767 67.692 12.767C68.5317 12.767 69.3009 12.4425 70.001 11.7941L71.4508 13.3582C70.4711 14.5288 69.2184 15.1138 67.692 15.1138C66.3308 15.1138 65.1765 14.6369 64.2291 13.6827C63.2816 12.7285 62.8076 11.5777 62.8076 10.2294C62.8076 8.88082 63.2816 7.72966 64.2291 6.77612C65.1766 5.82158 66.331 5.34473 67.692 5.34473V5.34489Z" fill="#B6B6B6"/>
<path d="M81.7392 14.9995H79.3159V9.37083L74.4317 14.9995H72.8667V5.45996H75.29V11.0885L80.1745 5.45996H81.7392V14.9995Z" fill="#B6B6B6"/>
<path d="M89.544 7.80668H87.2159C86.2251 7.80668 85.7275 8.20107 85.7275 8.98951C85.7275 9.7912 86.2251 10.1914 87.2159 10.1914H89.544V7.80668ZM91.9673 14.9995H89.544V12.233H88.5533C88.1699 12.2464 87.8724 12.3347 87.6554 12.5005C87.4403 12.6659 87.1721 12.9773 86.8547 13.4354L85.7858 14.9995H83.1528L84.373 13.1679C84.8196 12.4943 85.1637 12.068 85.4052 11.8897C84.7681 11.6991 84.2606 11.327 83.8779 10.7739C83.4961 10.2201 83.3052 9.62593 83.3052 8.98951C83.3052 8.55741 83.3722 8.1471 83.5057 7.75908C83.6396 7.3714 83.8553 6.99628 84.1543 6.63324C84.4532 6.2707 84.8901 5.98475 85.461 5.7749C86.0347 5.56472 86.708 5.45996 87.4844 5.45996H91.9673V14.9995Z" fill="#B6B6B6"/>
<path d="M45.5806 12.8351C44.1437 12.8351 42.975 11.666 42.975 10.2294C42.975 8.79248 44.1437 7.6234 45.5806 7.6234C47.0176 7.6234 48.1867 8.79248 48.1867 10.2294C48.1867 11.666 47.0176 12.8351 45.5806 12.8351ZM48.0641 5.45937V6.02355C47.336 5.59296 46.4874 5.34473 45.5806 5.34473C42.8828 5.34473 40.6963 7.53155 40.6963 10.2294C40.6963 12.9269 42.8828 15.1138 45.5806 15.1138C46.4874 15.1138 47.3362 14.8659 48.0641 14.4349V14.9991H50.4869V5.45954H48.0641V5.45937Z" fill="#B6B6B6"/>
<path d="M10.8693 0.182617L10.9319 1.49702L11.6944 2.57074L10.3792 2.63359L9.30545 3.39572L9.24293 2.08048L8.48047 1.00726L9.79538 0.944744L10.8693 0.182617Z" fill="#FF3366"/>
<path d="M6.94935 9.10147L8.899 4.2002L7.00516 6.57273C6.14532 5.81613 5.01847 5.35621 3.78351 5.35621C2.27585 5.35621 0.928428 6.03989 0.0335529 7.11394L1.60742 8.81235C2.07237 8.10352 2.87372 7.63404 3.78351 7.63404C4.47977 7.63404 5.11283 7.90976 5.57997 8.35695L3.81083 10.5729H6.36137C6.19527 11.8478 5.10311 12.8365 3.78351 12.8365C2.87338 12.8365 2.07153 12.3662 1.60692 11.657L0.0327148 13.3559C0.92759 14.43 2.27535 15.1143 3.78351 15.1143C6.47786 15.1143 8.6625 12.9297 8.6625 10.2354C8.6625 9.40099 8.45248 8.61607 8.08357 7.92971L6.94935 9.10131V9.10147Z" fill="#B6B6B6"/>
</svg>
