<svg width="120" height="31" viewBox="0 0 120 31" fill="none" xmlns="http://www.w3.org/2000/svg">
<path d="M12.7669 0.454949C13.8714 -0.15165 15.2195 -0.15165 16.324 0.454949L27.238 6.44876C28.3825 7.0773 29.0909 8.26076 29.0909 9.54412V21.365C29.0909 22.6483 28.3825 23.8318 27.238 24.4603L16.324 30.4541C15.2195 31.0607 13.8714 31.0607 12.7669 30.4541L1.85292 24.4603C0.708434 23.8318 0 22.6483 0 21.365V9.54411C0 8.26076 0.708435 7.0773 1.85292 6.44876L12.7669 0.454949Z" fill="#53B50A"/>
<path d="M14.8561 22.2215C13.8404 22.2215 12.9215 22.0523 12.0993 21.7137C11.2772 21.3591 10.5759 20.8835 9.99552 20.287C9.41516 19.6744 8.96376 18.9812 8.64134 18.2074C8.33504 17.4174 8.18188 16.5872 8.18188 15.7166C8.18188 14.5075 8.44788 13.4032 8.97988 12.4037C9.52801 11.4042 10.3018 10.6062 11.3013 10.0097C12.317 9.39712 13.5099 9.09082 14.8802 9.09082C16.2667 9.09082 17.4516 9.39712 18.435 10.0097C19.4184 10.6062 20.168 11.4042 20.6839 12.4037C21.2159 13.3871 21.4819 14.4511 21.4819 15.5957C21.4819 15.7892 21.4738 15.9907 21.4577 16.2003C21.4416 16.3937 21.4255 16.5549 21.4093 16.6839H11.6157C11.6802 17.3288 11.8656 17.893 12.1719 18.3766C12.4943 18.8603 12.8973 19.2311 13.381 19.489C13.8807 19.7308 14.4127 19.8517 14.977 19.8517C15.6218 19.8517 16.2264 19.6986 16.7906 19.3923C17.371 19.0699 17.7659 18.6507 17.9755 18.1348L20.7564 18.9086C20.4501 19.5535 20.0068 20.1258 19.4264 20.6255C18.8622 21.1253 18.1932 21.5203 17.4193 21.8105C16.6455 22.0845 15.7911 22.2215 14.8561 22.2215ZM11.5432 14.6285H18.169C18.1045 13.9836 17.9191 13.4274 17.6128 12.9599C17.3226 12.4763 16.9357 12.1055 16.4521 11.8475C15.9684 11.5735 15.4284 11.4365 14.8319 11.4365C14.2515 11.4365 13.7195 11.5735 13.2359 11.8475C12.7684 12.1055 12.3815 12.4763 12.0752 12.9599C11.785 13.4274 11.6076 13.9836 11.5432 14.6285Z" fill="white"/>
<path d="M44.0974 21.4546L41.7607 14.1008L39.4239 21.4546H36.1938L32.0472 9.45022H35.1628L37.9348 17.8579L40.3632 9.45022H43.181L45.5865 17.8579L48.3814 9.45022H51.4512L47.3505 21.4546H44.0974ZM60.2979 21.6837C59.3662 21.6837 58.5415 21.4775 57.8237 21.0651C57.1211 20.6375 56.5713 20.0648 56.1742 19.347V26.3342H53.1044V9.45022H55.7848V11.512C56.243 10.8095 56.8233 10.2597 57.5259 9.86259C58.2284 9.45022 59.0302 9.24404 59.9313 9.24404C60.7408 9.24404 61.4815 9.40441 62.1535 9.72513C62.8408 10.0459 63.4364 10.4964 63.9404 11.0768C64.4444 11.6419 64.8339 12.2986 65.1088 13.047C65.399 13.78 65.5441 14.5742 65.5441 15.4295C65.5441 16.5902 65.315 17.644 64.8568 18.591C64.4139 19.5379 63.7953 20.2939 63.0011 20.859C62.2222 21.4088 61.3211 21.6837 60.2979 21.6837ZM59.267 19.072C59.7404 19.072 60.1681 18.9728 60.5499 18.7742C60.9317 18.5757 61.2601 18.3084 61.535 17.9724C61.8251 17.6211 62.039 17.2317 62.1764 16.804C62.3291 16.3611 62.4055 15.903 62.4055 15.4295C62.4055 14.9255 62.3215 14.4597 62.1535 14.032C62.0008 13.6044 61.7717 13.2302 61.4662 12.9095C61.1608 12.5735 60.8019 12.3139 60.3895 12.1306C59.9924 11.9473 59.5571 11.8557 59.0837 11.8557C58.7935 11.8557 58.4957 11.9091 58.1902 12.016C57.9001 12.1077 57.6175 12.2451 57.3426 12.4284C57.0677 12.6117 56.8233 12.8255 56.6095 13.0699C56.411 13.3142 56.2659 13.5815 56.1742 13.8717V16.6895C56.3575 17.1324 56.6019 17.5371 56.9073 17.9037C57.2281 18.2702 57.5946 18.5604 58.007 18.7742C58.4193 18.9728 58.8393 19.072 59.267 19.072ZM72.0454 21.6837C71.0221 21.6837 70.0447 21.5157 69.113 21.1797C68.1814 20.8437 67.3796 20.3473 66.7076 19.6906L67.8072 17.6975C68.525 18.2779 69.2276 18.7055 69.9149 18.9804C70.6174 19.2553 71.2894 19.3928 71.9309 19.3928C72.5265 19.3928 73 19.2859 73.3512 19.072C73.7178 18.8582 73.901 18.5375 73.901 18.1099C73.901 17.8197 73.8018 17.5982 73.6032 17.4455C73.4047 17.2775 73.1145 17.1324 72.7327 17.0102C72.3661 16.888 71.9156 16.7506 71.381 16.5979C70.4952 16.3077 69.7545 16.0251 69.1589 15.7502C68.5632 15.4753 68.1127 15.1317 67.8072 14.7193C67.517 14.2917 67.372 13.7495 67.372 13.0928C67.372 12.2986 67.5705 11.619 67.9676 11.0539C68.38 10.4735 68.945 10.023 69.6629 9.70223C70.396 9.3815 71.2512 9.22113 72.2287 9.22113C73.084 9.22113 73.8934 9.35859 74.657 9.6335C75.4207 9.89313 76.1156 10.3208 76.7418 10.9164L75.5047 12.8637C74.8938 12.3902 74.3134 12.0466 73.7636 11.8328C73.2138 11.6037 72.6563 11.4891 72.0912 11.4891C71.7705 11.4891 71.465 11.5273 71.1749 11.6037C70.9 11.68 70.6709 11.8099 70.4876 11.9931C70.3196 12.1611 70.2356 12.4055 70.2356 12.7262C70.2356 13.0164 70.312 13.2455 70.4647 13.4135C70.6327 13.5662 70.877 13.7037 71.1978 13.8259C71.5338 13.948 71.9385 14.0855 72.412 14.2382C73.3741 14.5131 74.1836 14.7957 74.8403 15.0859C75.5123 15.376 76.0163 15.735 76.3523 16.1626C76.6883 16.575 76.8563 17.1477 76.8563 17.8808C76.8563 19.072 76.421 20.0037 75.5505 20.6757C74.68 21.3477 73.5116 21.6837 72.0454 21.6837ZM90.101 21.4546H87.0312V14.7193C87.0312 13.7877 86.8479 13.0928 86.4814 12.6346C86.1301 12.1764 85.6414 11.9473 85.0152 11.9473C84.6486 11.9473 84.2592 12.0542 83.8468 12.268C83.4345 12.4819 83.0603 12.7797 82.7243 13.1615C82.4035 13.528 82.1668 13.9557 82.0141 14.4444V21.4546H78.9443V4.73095H82.0141V11.6724C82.457 10.9088 83.0603 10.3131 83.8239 9.8855C84.5875 9.45786 85.4199 9.24404 86.321 9.24404C87.0999 9.24404 87.7337 9.3815 88.2225 9.65641C88.7112 9.91604 89.093 10.275 89.3679 10.7331C89.6428 11.176 89.8337 11.68 89.9406 12.2451C90.0475 12.795 90.101 13.3677 90.101 13.9633V21.4546ZM98.3143 21.6837C97.3368 21.6837 96.4586 21.5233 95.6797 21.2026C94.9008 20.8666 94.2364 20.4084 93.6866 19.828C93.1521 19.2477 92.7397 18.5833 92.4495 17.835C92.1594 17.0866 92.0143 16.3 92.0143 15.4753C92.0143 14.6353 92.1594 13.8411 92.4495 13.0928C92.7397 12.3444 93.1521 11.68 93.6866 11.0997C94.2364 10.5193 94.9008 10.0688 95.6797 9.74804C96.4586 9.41204 97.3368 9.24404 98.3143 9.24404C99.2917 9.24404 100.162 9.41204 100.926 9.74804C101.705 10.0688 102.369 10.5193 102.919 11.0997C103.469 11.68 103.881 12.3444 104.156 13.0928C104.446 13.8411 104.591 14.6353 104.591 15.4753C104.591 16.3 104.446 17.0866 104.156 17.835C103.881 18.5833 103.469 19.2477 102.919 19.828C102.384 20.4084 101.728 20.8666 100.949 21.2026C100.17 21.5233 99.2917 21.6837 98.3143 21.6837ZM95.1757 15.4753C95.1757 16.1779 95.3132 16.804 95.5881 17.3539C95.863 17.8884 96.2372 18.3084 96.7106 18.6139C97.1841 18.9193 97.7186 19.072 98.3143 19.072C98.8946 19.072 99.4215 18.9193 99.895 18.6139C100.368 18.2931 100.743 17.8655 101.018 17.331C101.308 16.7811 101.453 16.155 101.453 15.4524C101.453 14.7651 101.308 14.1466 101.018 13.5968C100.743 13.047 100.368 12.6193 99.895 12.3139C99.4215 12.0084 98.8946 11.8557 98.3143 11.8557C97.7186 11.8557 97.1841 12.016 96.7106 12.3368C96.2372 12.6422 95.863 13.0699 95.5881 13.6197C95.3132 14.1542 95.1757 14.7728 95.1757 15.4753ZM113.857 21.6837C112.925 21.6837 112.1 21.4775 111.383 21.0651C110.68 20.6375 110.13 20.0648 109.733 19.347V26.3342H106.663V9.45022H109.344V11.512C109.802 10.8095 110.382 10.2597 111.085 9.86259C111.787 9.45022 112.589 9.24404 113.49 9.24404C114.3 9.24404 115.04 9.40441 115.712 9.72513C116.4 10.0459 116.995 10.4964 117.499 11.0768C118.003 11.6419 118.393 12.2986 118.668 13.047C118.958 13.78 119.103 14.5742 119.103 15.4295C119.103 16.5902 118.874 17.644 118.416 18.591C117.973 19.5379 117.354 20.2939 116.56 20.859C115.781 21.4088 114.88 21.6837 113.857 21.6837ZM112.826 19.072C113.299 19.072 113.727 18.9728 114.109 18.7742C114.491 18.5757 114.819 18.3084 115.094 17.9724C115.384 17.6211 115.598 17.2317 115.735 16.804C115.888 16.3611 115.964 15.903 115.964 15.4295C115.964 14.9255 115.88 14.4597 115.712 14.032C115.56 13.6044 115.331 13.2302 115.025 12.9095C114.72 12.5735 114.361 12.3139 113.948 12.1306C113.551 11.9473 113.116 11.8557 112.643 11.8557C112.352 11.8557 112.055 11.9091 111.749 12.016C111.459 12.1077 111.176 12.2451 110.902 12.4284C110.627 12.6117 110.382 12.8255 110.168 13.0699C109.97 13.3142 109.825 13.5815 109.733 13.8717V16.6895C109.916 17.1324 110.161 17.5371 110.466 17.9037C110.787 18.2702 111.154 18.5604 111.566 18.7742C111.978 18.9728 112.398 19.072 112.826 19.072Z" fill="white"/>
</svg>
