<svg width="120" height="32" viewBox="0 0 120 32" fill="none" xmlns="http://www.w3.org/2000/svg">
<path d="M12.7669 0.954949C13.8714 0.34835 15.2195 0.34835 16.324 0.954949L27.238 6.94876C28.3825 7.5773 29.0909 8.76076 29.0909 10.0441V21.865C29.0909 23.1483 28.3825 24.3318 27.238 24.9603L16.324 30.9541C15.2195 31.5607 13.8714 31.5607 12.7669 30.9541L1.85292 24.9603C0.708434 24.3318 0 23.1483 0 21.865V10.0441C0 8.76076 0.708435 7.5773 1.85292 6.94876L12.7669 0.954949Z" fill="#53B50A"/>
<path d="M14.8561 22.7218C13.8404 22.7218 12.9215 22.5525 12.0993 22.214C11.2772 21.8593 10.5759 21.3837 9.99552 20.7872C9.41516 20.1746 8.96376 19.4814 8.64134 18.7076C8.33504 17.9177 8.18188 17.0874 8.18188 16.2169C8.18188 15.0078 8.44788 13.9035 8.97988 12.904C9.52801 11.9045 10.3018 11.1065 11.3013 10.51C12.317 9.89737 13.5099 9.59106 14.8802 9.59106C16.2667 9.59106 17.4516 9.89737 18.435 10.51C19.4184 11.1065 20.168 11.9045 20.6839 12.904C21.2159 13.8874 21.4819 14.9514 21.4819 16.096C21.4819 16.2894 21.4738 16.4909 21.4577 16.7005C21.4416 16.894 21.4255 17.0552 21.4093 17.1842H11.6157C11.6802 17.829 11.8656 18.3932 12.1719 18.8769C12.4943 19.3605 12.8973 19.7313 13.381 19.9892C13.8807 20.2311 14.4127 20.352 14.977 20.352C15.6218 20.352 16.2264 20.1988 16.7906 19.8925C17.371 19.5701 17.7659 19.1509 17.9755 18.6351L20.7564 19.4089C20.4501 20.0537 20.0068 20.626 19.4264 21.1258C18.8622 21.6256 18.1932 22.0205 17.4193 22.3107C16.6455 22.5848 15.7911 22.7218 14.8561 22.7218ZM11.5432 15.1287H18.169C18.1045 14.4839 17.9191 13.9277 17.6128 13.4602C17.3226 12.9765 16.9357 12.6057 16.4521 12.3478C15.9684 12.0737 15.4284 11.9367 14.8319 11.9367C14.2515 11.9367 13.7195 12.0737 13.2359 12.3478C12.7684 12.6057 12.3815 12.9765 12.0752 13.4602C11.785 13.9277 11.6076 14.4839 11.5432 15.1287Z" fill="white"/>
<path d="M44.0974 21.9546L41.7607 14.6008L39.4239 21.9546H36.1938L32.0472 9.95022H35.1628L37.9348 18.3579L40.3632 9.95022H43.181L45.5865 18.3579L48.3814 9.95022H51.4512L47.3505 21.9546H44.0974ZM60.2979 22.1837C59.3662 22.1837 58.5415 21.9775 57.8237 21.5651C57.1211 21.1375 56.5713 20.5648 56.1742 19.847V26.8342H53.1044V9.95022H55.7848V12.012C56.243 11.3095 56.8233 10.7597 57.5259 10.3626C58.2284 9.95022 59.0302 9.74404 59.9313 9.74404C60.7408 9.74404 61.4815 9.90441 62.1535 10.2251C62.8408 10.5459 63.4364 10.9964 63.9404 11.5768C64.4444 12.1419 64.8339 12.7986 65.1088 13.547C65.399 14.28 65.5441 15.0742 65.5441 15.9295C65.5441 17.0902 65.315 18.144 64.8568 19.091C64.4139 20.0379 63.7953 20.7939 63.0011 21.359C62.2222 21.9088 61.3211 22.1837 60.2979 22.1837ZM59.267 19.572C59.7404 19.572 60.1681 19.4728 60.5499 19.2742C60.9317 19.0757 61.2601 18.8084 61.535 18.4724C61.8251 18.1211 62.039 17.7317 62.1764 17.304C62.3291 16.8611 62.4055 16.403 62.4055 15.9295C62.4055 15.4255 62.3215 14.9597 62.1535 14.532C62.0008 14.1044 61.7717 13.7302 61.4662 13.4095C61.1608 13.0735 60.8019 12.8139 60.3895 12.6306C59.9924 12.4473 59.5571 12.3557 59.0837 12.3557C58.7935 12.3557 58.4957 12.4091 58.1902 12.516C57.9001 12.6077 57.6175 12.7451 57.3426 12.9284C57.0677 13.1117 56.8233 13.3255 56.6095 13.5699C56.411 13.8142 56.2659 14.0815 56.1742 14.3717V17.1895C56.3575 17.6324 56.6019 18.0371 56.9073 18.4037C57.2281 18.7702 57.5946 19.0604 58.007 19.2742C58.4193 19.4728 58.8393 19.572 59.267 19.572ZM72.0454 22.1837C71.0221 22.1837 70.0447 22.0157 69.113 21.6797C68.1814 21.3437 67.3796 20.8473 66.7076 20.1906L67.8072 18.1975C68.525 18.7779 69.2276 19.2055 69.9149 19.4804C70.6174 19.7553 71.2894 19.8928 71.9309 19.8928C72.5265 19.8928 73 19.7859 73.3512 19.572C73.7178 19.3582 73.901 19.0375 73.901 18.6099C73.901 18.3197 73.8018 18.0982 73.6032 17.9455C73.4047 17.7775 73.1145 17.6324 72.7327 17.5102C72.3661 17.388 71.9156 17.2506 71.381 17.0979C70.4952 16.8077 69.7545 16.5251 69.1589 16.2502C68.5632 15.9753 68.1127 15.6317 67.8072 15.2193C67.517 14.7917 67.372 14.2495 67.372 13.5928C67.372 12.7986 67.5705 12.119 67.9676 11.5539C68.38 10.9735 68.945 10.523 69.6629 10.2022C70.396 9.8815 71.2512 9.72113 72.2287 9.72113C73.084 9.72113 73.8934 9.85859 74.657 10.1335C75.4207 10.3931 76.1156 10.8208 76.7418 11.4164L75.5047 13.3637C74.8938 12.8902 74.3134 12.5466 73.7636 12.3328C73.2138 12.1037 72.6563 11.9891 72.0912 11.9891C71.7705 11.9891 71.465 12.0273 71.1749 12.1037C70.9 12.18 70.6709 12.3099 70.4876 12.4931C70.3196 12.6611 70.2356 12.9055 70.2356 13.2262C70.2356 13.5164 70.312 13.7455 70.4647 13.9135C70.6327 14.0662 70.877 14.2037 71.1978 14.3259C71.5338 14.448 71.9385 14.5855 72.412 14.7382C73.3741 15.0131 74.1836 15.2957 74.8403 15.5859C75.5123 15.876 76.0163 16.235 76.3523 16.6626C76.6883 17.075 76.8563 17.6477 76.8563 18.3808C76.8563 19.572 76.421 20.5037 75.5505 21.1757C74.68 21.8477 73.5116 22.1837 72.0454 22.1837ZM90.101 21.9546H87.0312V15.2193C87.0312 14.2877 86.8479 13.5928 86.4814 13.1346C86.1301 12.6764 85.6414 12.4473 85.0152 12.4473C84.6486 12.4473 84.2592 12.5542 83.8468 12.768C83.4345 12.9819 83.0603 13.2797 82.7243 13.6615C82.4035 14.028 82.1668 14.4557 82.0141 14.9444V21.9546H78.9443V5.23095H82.0141V12.1724C82.457 11.4088 83.0603 10.8131 83.8239 10.3855C84.5875 9.95786 85.4199 9.74404 86.321 9.74404C87.0999 9.74404 87.7337 9.8815 88.2225 10.1564C88.7112 10.416 89.093 10.775 89.3679 11.2331C89.6428 11.676 89.8337 12.18 89.9406 12.7451C90.0475 13.295 90.101 13.8677 90.101 14.4633V21.9546ZM98.3143 22.1837C97.3368 22.1837 96.4586 22.0233 95.6797 21.7026C94.9008 21.3666 94.2364 20.9084 93.6866 20.328C93.1521 19.7477 92.7397 19.0833 92.4495 18.335C92.1594 17.5866 92.0143 16.8 92.0143 15.9753C92.0143 15.1353 92.1594 14.3411 92.4495 13.5928C92.7397 12.8444 93.1521 12.18 93.6866 11.5997C94.2364 11.0193 94.9008 10.5688 95.6797 10.248C96.4586 9.91204 97.3368 9.74404 98.3143 9.74404C99.2917 9.74404 100.162 9.91204 100.926 10.248C101.705 10.5688 102.369 11.0193 102.919 11.5997C103.469 12.18 103.881 12.8444 104.156 13.5928C104.446 14.3411 104.591 15.1353 104.591 15.9753C104.591 16.8 104.446 17.5866 104.156 18.335C103.881 19.0833 103.469 19.7477 102.919 20.328C102.384 20.9084 101.728 21.3666 100.949 21.7026C100.17 22.0233 99.2917 22.1837 98.3143 22.1837ZM95.1757 15.9753C95.1757 16.6779 95.3132 17.304 95.5881 17.8539C95.863 18.3884 96.2372 18.8084 96.7106 19.1139C97.1841 19.4193 97.7186 19.572 98.3143 19.572C98.8946 19.572 99.4215 19.4193 99.895 19.1139C100.368 18.7931 100.743 18.3655 101.018 17.831C101.308 17.2811 101.453 16.655 101.453 15.9524C101.453 15.2651 101.308 14.6466 101.018 14.0968C100.743 13.547 100.368 13.1193 99.895 12.8139C99.4215 12.5084 98.8946 12.3557 98.3143 12.3557C97.7186 12.3557 97.1841 12.516 96.7106 12.8368C96.2372 13.1422 95.863 13.5699 95.5881 14.1197C95.3132 14.6542 95.1757 15.2728 95.1757 15.9753ZM113.857 22.1837C112.925 22.1837 112.1 21.9775 111.383 21.5651C110.68 21.1375 110.13 20.5648 109.733 19.847V26.8342H106.663V9.95022H109.344V12.012C109.802 11.3095 110.382 10.7597 111.085 10.3626C111.787 9.95022 112.589 9.74404 113.49 9.74404C114.3 9.74404 115.04 9.90441 115.712 10.2251C116.4 10.5459 116.995 10.9964 117.499 11.5768C118.003 12.1419 118.393 12.7986 118.668 13.547C118.958 14.28 119.103 15.0742 119.103 15.9295C119.103 17.0902 118.874 18.144 118.416 19.091C117.973 20.0379 117.354 20.7939 116.56 21.359C115.781 21.9088 114.88 22.1837 113.857 22.1837ZM112.826 19.572C113.299 19.572 113.727 19.4728 114.109 19.2742C114.491 19.0757 114.819 18.8084 115.094 18.4724C115.384 18.1211 115.598 17.7317 115.735 17.304C115.888 16.8611 115.964 16.403 115.964 15.9295C115.964 15.4255 115.88 14.9597 115.712 14.532C115.56 14.1044 115.331 13.7302 115.025 13.4095C114.72 13.0735 114.361 12.8139 113.948 12.6306C113.551 12.4473 113.116 12.3557 112.643 12.3557C112.352 12.3557 112.055 12.4091 111.749 12.516C111.459 12.6077 111.176 12.7451 110.902 12.9284C110.627 13.1117 110.382 13.3255 110.168 13.5699C109.97 13.8142 109.825 14.0815 109.733 14.3717V17.1895C109.916 17.6324 110.161 18.0371 110.466 18.4037C110.787 18.7702 111.154 19.0604 111.566 19.2742C111.978 19.4728 112.398 19.572 112.826 19.572Z" fill="#383838"/>
</svg>
