<svg width="37" height="37" viewBox="0 0 37 37" fill="none" xmlns="http://www.w3.org/2000/svg">
<path d="M21.4815 9.74807V15.5185C17.2448 15.5944 15.4834 17.3559 15.4074 21.5926H9.63706C5.0815 21.5926 3.25928 19.7704 3.25928 15.2149V9.74807C3.25928 5.19251 5.0815 3.37036 9.63706 3.37036H15.1037C19.6593 3.37036 21.4815 5.19251 21.4815 9.74807Z" stroke="white" stroke-width="2.27778" stroke-linecap="round" stroke-linejoin="round"/>
<path d="M10.7912 9.24696C9.98643 8.7003 8.92347 8.70033 8.11865 9.27736" stroke="white" stroke-width="2.27778" stroke-miterlimit="10" stroke-linecap="round" stroke-linejoin="round"/>
<path d="M16.8655 9.24696C16.0606 8.7003 14.9977 8.70033 14.1929 9.27736" stroke="white" stroke-width="2.27778" stroke-miterlimit="10" stroke-linecap="round" stroke-linejoin="round"/>
<path d="M12.613 17.6749H9.09002C8.63447 17.6749 8.27002 17.3104 8.27002 16.8548C8.27002 14.5922 10.1074 12.7549 12.37 12.7549C13.3419 12.7549 14.2378 13.0889 14.9363 13.6508" stroke="white" stroke-width="2.27778" stroke-miterlimit="10" stroke-linecap="round" stroke-linejoin="round"/>
<path d="M33.6294 21.8963V27.3631C33.6294 31.9186 31.8072 33.7408 27.2517 33.7408H21.785C17.2295 33.7408 15.4072 31.9186 15.4072 27.3631V21.5926C15.4832 17.356 17.2446 15.5945 21.4813 15.5186H27.2517C31.8072 15.5186 33.6294 17.3407 33.6294 21.8963Z" stroke="white" stroke-width="2.27778" stroke-linecap="round" stroke-linejoin="round"/>
<path d="M22.9397 21.0156C22.1349 21.5623 21.0719 21.5623 20.2671 20.9852" stroke="white" stroke-width="2.27778" stroke-miterlimit="10" stroke-linecap="round" stroke-linejoin="round"/>
<path d="M29.0134 21.0156C28.2086 21.5623 27.1456 21.5623 26.3408 20.9852" stroke="white" stroke-width="2.27778" stroke-miterlimit="10" stroke-linecap="round" stroke-linejoin="round"/>
<path d="M21.238 24.9031H27.798C28.2535 24.9031 28.618 25.2674 28.618 25.723C28.618 27.9855 26.7806 29.8231 24.518 29.8231C22.2554 29.8231 20.418 27.9855 20.418 25.723C20.418 25.2674 20.7824 24.9031 21.238 24.9031Z" stroke="white" stroke-width="2.27778" stroke-miterlimit="10" stroke-linecap="round" stroke-linejoin="round"/>
</svg>
