<svg width="37" height="37" viewBox="0 0 37 37" fill="none" xmlns="http://www.w3.org/2000/svg">
<path d="M23 3.37036V18.5555C23 20.2259 21.6334 21.5926 19.963 21.5926H3.25928V11.9044C4.3678 13.2255 6.06858 14.0455 7.95154 14C9.48524 13.9696 10.8671 13.3774 11.8997 12.3904C12.3704 11.9956 12.7652 11.4944 13.0689 10.9478C13.6156 10.0215 13.9193 8.9281 13.8889 7.78921C13.8434 6.01254 13.0537 4.44851 11.8237 3.37036H23Z" stroke="white" stroke-width="2.27778" stroke-linecap="round" stroke-linejoin="round"/>
<path d="M33.6296 21.5927V26.1482C33.6296 28.669 31.5948 30.7038 29.0741 30.7038H27.5556C27.5556 29.0334 26.1889 27.6668 24.5185 27.6668C22.8482 27.6668 21.4815 29.0334 21.4815 30.7038H15.4074C15.4074 29.0334 14.0408 27.6668 12.3704 27.6668C10.7 27.6668 9.33335 29.0334 9.33335 30.7038H7.81483C5.29409 30.7038 3.25928 28.669 3.25928 26.1482V21.5927H19.963C21.6334 21.5927 23 20.226 23 18.5557V7.92603H25.7941C26.8875 7.92603 27.8897 8.51826 28.4363 9.45974L31.0329 14.0001H29.0741C28.2389 14.0001 27.5556 14.6834 27.5556 15.5186V20.0742C27.5556 20.9094 28.2389 21.5927 29.0741 21.5927H33.6296Z" stroke="white" stroke-width="2.27778" stroke-linecap="round" stroke-linejoin="round"/>
<path d="M12.3703 33.7408C14.0476 33.7408 15.4073 32.3811 15.4073 30.7038C15.4073 29.0265 14.0476 27.6667 12.3703 27.6667C10.693 27.6667 9.33325 29.0265 9.33325 30.7038C9.33325 32.3811 10.693 33.7408 12.3703 33.7408Z" stroke="white" stroke-width="2.27778" stroke-linecap="round" stroke-linejoin="round"/>
<path d="M24.5185 33.7408C26.1958 33.7408 27.5555 32.3811 27.5555 30.7038C27.5555 29.0265 26.1958 27.6667 24.5185 27.6667C22.8412 27.6667 21.4814 29.0265 21.4814 30.7038C21.4814 32.3811 22.8412 33.7408 24.5185 33.7408Z" stroke="white" stroke-width="2.27778" stroke-linecap="round" stroke-linejoin="round"/>
<path d="M33.6295 18.5556V21.5926H29.0739C28.2388 21.5926 27.5554 20.9093 27.5554 20.0741V15.5185C27.5554 14.6833 28.2388 14 29.0739 14H31.0328L33.6295 18.5556Z" stroke="white" stroke-width="2.27778" stroke-linecap="round" stroke-linejoin="round"/>
<path d="M13.8887 7.78934C13.919 8.92823 13.6154 10.0216 13.0687 10.9479C12.765 11.4946 12.3701 11.9957 11.8994 12.3905C10.8668 13.3775 9.485 13.9698 7.95129 14.0001C6.06833 14.0457 4.36755 13.2257 3.25903 11.9046C3.04644 11.6768 2.86422 11.4186 2.69719 11.1605C2.10497 10.2646 1.77088 9.20164 1.74051 8.06275C1.69496 6.14942 2.54532 4.40307 3.91198 3.26418C4.94458 2.41381 6.25047 1.88234 7.67788 1.85197C9.27232 1.8216 10.7302 2.39864 11.8235 3.37049C13.0535 4.44864 13.8431 6.01267 13.8887 7.78934Z" stroke="white" stroke-width="2.27778" stroke-miterlimit="10" stroke-linecap="round" stroke-linejoin="round"/>
<path d="M5.4458 7.97154L6.97952 9.42925L10.1532 6.36182" stroke="white" stroke-width="2.27778" stroke-linecap="round" stroke-linejoin="round"/>
</svg>
