<svg width="39" height="38" viewBox="0 0 39 38" fill="none" xmlns="http://www.w3.org/2000/svg">
<path d="M30.185 14C30.185 16.2018 29.5321 18.2215 28.4084 19.9071C26.7684 22.3367 24.1717 24.0526 21.1499 24.493C20.6336 24.5841 20.1021 24.6296 19.5554 24.6296C19.0087 24.6296 18.4773 24.5841 17.961 24.493C14.9391 24.0526 12.3424 22.3367 10.7024 19.9071C9.57874 18.2215 8.92578 16.2018 8.92578 14C8.92578 8.12332 13.6787 3.37036 19.5554 3.37036C25.4321 3.37036 30.185 8.12332 30.185 14Z" stroke="white" stroke-width="2.27778" stroke-linecap="round" stroke-linejoin="round"/>
<path d="M33.6016 28.3804L31.0961 28.9726C30.5342 29.1093 30.0938 29.5345 29.9724 30.0963L29.4409 32.3286C29.1524 33.5434 27.6035 33.9078 26.7986 32.9512L19.5553 24.6297L12.312 32.9663C11.5072 33.923 9.95828 33.5585 9.66976 32.3437L9.13828 30.1115C9.00161 29.5496 8.56124 29.1093 8.01457 28.9878L5.50902 28.3956C4.35494 28.1223 3.94494 26.6796 4.78013 25.8445L10.7024 19.9222C12.3424 22.3519 14.939 24.0678 17.9609 24.5082C18.4772 24.5993 19.0086 24.6449 19.5553 24.6449C20.102 24.6449 20.6335 24.5993 21.1498 24.5082C24.1716 24.0678 26.7683 22.3519 28.4083 19.9222L34.3305 25.8445C35.1657 26.6645 34.7557 28.1071 33.6016 28.3804Z" stroke="white" stroke-width="2.27778" stroke-linecap="round" stroke-linejoin="round"/>
<path d="M20.4357 9.41407L21.3317 11.2059C21.4531 11.4489 21.772 11.6918 22.0605 11.7374L23.6854 12.0107C24.718 12.1778 24.9609 12.937 24.2168 13.6811L22.9565 14.9415C22.7439 15.154 22.6224 15.5641 22.6983 15.8678L23.0628 17.4318C23.3513 18.6618 22.6983 19.1477 21.605 18.4948L20.0865 17.5989C19.8131 17.4318 19.3576 17.4318 19.0842 17.5989L17.5657 18.4948C16.4724 19.1326 15.8194 18.6618 16.108 17.4318L16.4724 15.8678C16.5331 15.5793 16.4268 15.154 16.2142 14.9415L14.9539 13.6811C14.2098 12.937 14.4528 12.1929 15.4854 12.0107L17.1102 11.7374C17.3835 11.6918 17.7024 11.4489 17.8239 11.2059L18.7198 9.41407C19.1602 8.44222 19.9498 8.44222 20.4357 9.41407Z" stroke="white" stroke-width="2.27778" stroke-linecap="round" stroke-linejoin="round"/>
</svg>
