<svg width="37" height="37" viewBox="0 0 37 37" fill="none" xmlns="http://www.w3.org/2000/svg">
<path d="M21.8787 23.777H14.2861" stroke="white" stroke-width="2.27778" stroke-miterlimit="10" stroke-linecap="round" stroke-linejoin="round"/>
<path d="M18.0825 20.0712V27.6638" stroke="white" stroke-width="2.27778" stroke-miterlimit="10" stroke-linecap="round" stroke-linejoin="round"/>
<path d="M19.4465 4.15716L19.4009 4.26346L14.9972 14.4831H10.6695C9.63687 14.4831 8.64983 14.6957 7.75391 15.0753L10.4113 8.7279L10.4721 8.57605L10.5784 8.33309C10.6087 8.24198 10.6391 8.15086 10.6846 8.07494C12.6739 3.47383 14.9213 2.42605 19.4465 4.15716Z" stroke="white" stroke-width="2.27778" stroke-linecap="round" stroke-linejoin="round"/>
<path d="M27.6316 14.787C26.9483 14.5744 26.2194 14.4833 25.4905 14.4833H14.9976L19.4013 4.26364L19.4468 4.15735C19.6746 4.23327 19.8872 4.33957 20.115 4.43068L23.4709 5.8429C25.3387 6.61735 26.6446 7.42216 27.4342 8.39402C27.5861 8.57624 27.7076 8.74327 27.8139 8.94068C27.9505 9.15327 28.0568 9.36587 28.1176 9.59364C28.1783 9.73031 28.2239 9.86698 28.2542 9.98846C28.6642 11.264 28.4213 12.8281 27.6316 14.787Z" stroke="white" stroke-width="2.27778" stroke-linecap="round" stroke-linejoin="round"/>
<path d="M32.9032 21.8939V24.855C32.9032 25.1587 32.888 25.4624 32.8728 25.7661C32.5843 31.0657 29.6232 33.7383 24.0046 33.7383H12.1602C11.7957 33.7383 11.4313 33.708 11.082 33.6624C6.25315 33.3435 3.67167 30.762 3.35278 25.9332C3.30723 25.5839 3.27686 25.2194 3.27686 24.855V21.8939C3.27686 18.8417 5.12945 16.2146 7.77167 15.0757C8.68278 14.6961 9.65463 14.4835 10.6872 14.4835H25.508C26.252 14.4835 26.9809 14.5898 27.6491 14.7872C30.6709 15.7135 32.9032 18.538 32.9032 21.8939Z" stroke="white" stroke-width="2.27778" stroke-linecap="round" stroke-linejoin="round"/>
<path d="M10.4115 8.72791L7.75409 15.0753C5.11187 16.2142 3.25928 18.8412 3.25928 21.8935V17.4442C3.25928 13.1316 6.32668 9.53272 10.4115 8.72791Z" stroke="white" stroke-width="2.27778" stroke-linecap="round" stroke-linejoin="round"/>
<path d="M32.8986 17.4435V21.8928C32.8986 18.552 30.6816 15.7124 27.6445 14.8013C28.4342 12.8272 28.6619 11.2783 28.2823 9.98759C28.2519 9.85092 28.2064 9.71425 28.1456 9.59277C30.9701 11.0506 32.8986 14.042 32.8986 17.4435Z" stroke="white" stroke-width="2.27778" stroke-linecap="round" stroke-linejoin="round"/>
</svg>
